<svg width="70" height="45" viewBox="0 0 70 45" fill="none" xmlns="http://www.w3.org/2000/svg">
<path d="M16.0788 44.6564C24.8884 44.6564 31.8444 37.5136 31.8444 28.704C31.8444 19.8943 24.6091 12.7516 15.7994 12.7516C15.7113 12.7516 15.5784 12.7636 15.4902 12.7651C18.9735 9.99132 23.3484 8.3199 28.1371 8.3199C30.3403 8.3199 32.1133 6.53347 32.1133 4.33181C32.1133 2.13014 30.6958 0.343716 28.4926 0.343716C12.8554 0.345207 0.499798 13.0668 0.499798 28.704C0.499798 28.707 0.499798 28.71 0.499798 28.7144C0.499798 37.5196 7.27209 44.6564 16.0788 44.6564Z" fill="#F5DF4D"/>
<path d="M53.4431 44.6564C62.2527 44.6564 69.2207 37.5136 69.2207 28.704C69.2207 19.8943 61.9913 12.7516 53.1802 12.7516C53.0921 12.7516 52.9621 12.7636 52.874 12.7651C56.3572 9.99132 60.7337 8.3199 65.5224 8.3199C67.7255 8.3199 69.5 6.53347 69.5 4.33181C69.5 2.13014 68.0601 0.343716 65.8569 0.343716C50.2197 0.345207 37.8417 13.0668 37.8417 28.704C37.8417 28.707 37.8417 28.71 37.8417 28.7144C37.8417 37.5196 44.6364 44.6564 53.4431 44.6564Z" fill="#F5DF4D"/>
</svg>
