<svg width="70" height="59" viewBox="0 0 70 59" fill="none" xmlns="http://www.w3.org/2000/svg">
<path d="M35 28.8586C41.5211 28.8586 46.8081 22.4374 46.8081 14.5166C46.8081 6.59568 45.072 0.174438 35 0.174438C24.9276 0.174438 23.1919 6.59568 23.1919 14.5166C23.1921 22.4374 28.4789 28.8586 35 28.8586Z" fill="#F9DCAD"/>
<path d="M57.2769 50.1781C57.0585 36.3796 55.2563 32.4479 41.4662 29.9589C41.4662 29.9589 39.5246 32.4324 35.0001 32.4324C30.4757 32.4324 28.5345 29.9589 28.5345 29.9589C14.8947 32.4205 12.9827 36.2941 12.7313 49.7297C12.7109 50.8269 12.7015 50.8844 12.6978 50.757C12.6985 50.9957 12.6995 51.437 12.6995 52.2068C12.6995 52.2068 15.9828 58.8253 35.0003 58.8253C54.0179 58.8253 57.3015 52.2068 57.3015 52.2068C57.3015 51.7123 57.3018 51.3682 57.3022 51.1345C57.2985 51.2132 57.2908 51.0606 57.2769 50.1781Z" fill="#F5DF4D"/>
<path d="M51.3868 26.2979C56.6834 26.2979 60.977 21.0827 60.977 14.6496C60.977 8.21626 59.5672 3.0011 51.3868 3.0011C50.0108 3.0011 48.8268 3.14915 47.8082 3.42552C49.6976 6.90869 49.9566 11.1394 49.9566 14.5165C49.9566 18.3402 48.9201 21.9908 47.0112 25.0134C48.3232 25.8328 49.81 26.2979 51.3868 26.2979Z" fill="#F7D39A"/>
<path d="M69.4796 43.6132C69.3018 32.4063 67.8384 29.213 56.6381 27.1915C56.6381 27.1915 55.0615 29.2006 51.3867 29.2006C51.2348 29.2006 51.0874 29.196 50.9424 29.1894C53.2772 30.2421 55.4013 31.7079 56.9655 33.8527C59.6697 37.5607 60.2914 42.5418 60.4197 49.8595C67.955 48.3705 69.4993 45.2611 69.4993 45.2611C69.4993 44.8559 69.4993 44.5779 69.5 44.3879C69.497 44.4547 69.4908 44.3349 69.4796 43.6132Z" fill="#EAD54E"/>
<path d="M18.6128 26.2979C20.1898 26.2979 21.6762 25.8327 22.9887 25.0136C21.0799 21.9909 20.0433 18.3403 20.0433 14.5166C20.0433 11.1393 20.3023 6.90864 22.1914 3.42564C21.173 3.14927 19.9891 3.00122 18.6128 3.00122C10.4324 3.00122 9.02295 8.21638 9.02295 14.6497C9.02295 21.0827 13.3166 26.2979 18.6128 26.2979Z" fill="#F6D39A"/>
<path d="M19.0573 29.1892C18.9126 29.1957 18.7652 29.2004 18.6129 29.2004C14.9382 29.2004 13.3615 27.1913 13.3615 27.1913C2.16161 29.2128 0.697815 32.4059 0.520439 43.6129C0.508887 44.3349 0.503021 44.4545 0.5 44.3875C0.500355 44.5775 0.500711 44.8555 0.500711 45.2607C0.500711 45.2607 2.04519 48.3701 9.57992 49.8591C9.70878 42.5416 10.3301 37.5605 13.0347 33.8523C14.5987 31.7078 16.7224 30.2419 19.0573 29.1892Z" fill="#EAD54E"/>
</svg>
