<svg width="36" height="36" viewBox="0 0 36 36" fill="none" xmlns="http://www.w3.org/2000/svg">
<circle cx="18" cy="18" r="18" fill="#840707"/>
<path d="M25.0002 11H11.0002C10.0377 11 9.25899 11.7875 9.25899 12.75L9.25024 23.25C9.25024 24.2125 10.0377 25 11.0002 25H25.0002C25.9627 25 26.7502 24.2125 26.7502 23.25V12.75C26.7502 11.7875 25.9627 11 25.0002 11ZM24.6502 14.7187L18.464 18.5862C18.184 18.7612 17.8165 18.7612 17.5365 18.5862L11.3502 14.7187C11.2625 14.6695 11.1857 14.603 11.1244 14.5231C11.0631 14.4433 11.0187 14.3519 10.9937 14.2544C10.9688 14.157 10.9639 14.0554 10.9794 13.956C10.9948 13.8566 11.0303 13.7613 11.0836 13.676C11.1369 13.5907 11.207 13.5171 11.2896 13.4596C11.3722 13.4022 11.4656 13.3621 11.5642 13.3418C11.6627 13.3214 11.7644 13.3213 11.863 13.3415C11.9615 13.3616 12.055 13.4015 12.1377 13.4587L18.0002 17.125L23.8627 13.4587C23.9455 13.4015 24.0389 13.3616 24.1375 13.3415C24.2361 13.3213 24.3378 13.3214 24.4363 13.3418C24.5349 13.3621 24.6283 13.4022 24.7109 13.4596C24.7935 13.5171 24.8635 13.5907 24.9169 13.676C24.9702 13.7613 25.0057 13.8566 25.0211 13.956C25.0366 14.0554 25.0317 14.157 25.0067 14.2544C24.9818 14.3519 24.9374 14.4433 24.8761 14.5231C24.8148 14.603 24.738 14.6695 24.6502 14.7187Z" fill="white"/>
</svg>
