<svg width="82" height="82" viewBox="0 0 82 82" fill="none" xmlns="http://www.w3.org/2000/svg">
<path d="M5.125 43.5132V74.2632C5.125 77.0922 7.42613 79.3882 10.25 79.3882H35.875V43.5132H5.125Z" fill="#252525"/>
<path d="M76.875 23.0132H60.6595C61.8229 22.2188 62.8223 21.4295 63.5192 20.7223C67.6551 16.5659 67.6551 9.80091 63.5192 5.64454C59.5013 1.59579 52.5005 1.60604 48.4876 5.64454C46.2634 7.87391 40.3696 16.9503 41.1845 23.0132H40.8155C41.6253 16.9503 35.7315 7.87391 33.5124 5.64454C29.4944 1.60604 22.4936 1.60604 18.4807 5.64454C14.35 9.80091 14.35 16.5659 18.4756 20.7223C19.1777 21.4295 20.1771 22.2188 21.3405 23.0132H5.125C2.30113 23.0132 0 25.3143 0 28.1382V35.8257C0 37.2402 1.148 38.3881 2.5625 38.3881H35.875V28.1382H46.125V38.3881H79.4375C80.852 38.3881 82 37.2402 82 35.8257V28.1382C82 25.3143 79.704 23.0132 76.875 23.0132ZM35.5726 22.844C35.5726 22.844 35.3574 23.0132 34.6245 23.0132C31.0831 23.0132 24.3232 19.3334 22.1144 17.1092C19.967 14.9464 19.967 11.4204 22.1144 9.25766C23.1548 8.21216 24.5334 7.63816 25.9991 7.63816C27.4597 7.63816 28.8384 8.21216 29.8787 9.25766C33.333 12.7324 36.7668 21.6089 35.5726 22.844ZM47.3704 23.0132C46.6426 23.0132 46.4274 22.8492 46.4274 22.844C45.2332 21.6089 48.667 12.7324 52.1213 9.25766C54.1866 7.17179 57.7998 7.16154 59.8856 9.25766C62.0381 11.4204 62.0381 14.9464 59.8856 17.1092C57.6768 19.3334 50.9169 23.0132 47.3704 23.0132Z" fill="#252525"/>
<path d="M46.125 43.5132V79.3882H71.75C74.579 79.3882 76.875 77.0922 76.875 74.2632V43.5132H46.125Z" fill="#252525"/>
</svg>
