<?xml version="1.0" encoding="utf-8"?>
<!-- Generator: Adobe Illustrator 23.0.3, SVG Export Plug-In . SVG Version: 6.00 Build 0)  -->
<svg version="1.1" xmlns="http://www.w3.org/2000/svg" xmlns:xlink="http://www.w3.org/1999/xlink" x="0px" y="0px"
	 viewBox="0 0 599 136" style="enable-background:new 0 0 599 136;" xml:space="preserve">
<style type="text/css">
	.st0{fill:#8D6E42;}
	.st1{fill:#8F7245;}
	.st2{fill:#8B6B3E;}
	.st3{fill:#8B6B3E;stroke:#86683D;stroke-width:0.5;}
	.st4{fill:none;stroke:#86683D;stroke-width:0.5;}
	.st5{fill:none;stroke:#8B6B3E;stroke-width:0.5;}
	.st6{fill:none;stroke:#8B6B3E;}
	.st7{fill:none;stroke:#86683D;}
	.st8{opacity:0.7;fill:none;stroke:#8B6B3E;enable-background:new    ;}
	.st9{fill-rule:evenodd;clip-rule:evenodd;fill:url(#SVGID_1_);}
	.st10{fill-rule:evenodd;clip-rule:evenodd;fill:url(#SVGID_2_);}
	.st11{fill-rule:evenodd;clip-rule:evenodd;fill:url(#SVGID_3_);}
	.st12{fill-rule:evenodd;clip-rule:evenodd;fill:#FFF4AB;}
	.st13{fill-rule:evenodd;clip-rule:evenodd;fill:url(#SVGID_4_);}
	.st14{fill-rule:evenodd;clip-rule:evenodd;fill:url(#SVGID_5_);}
	.st15{fill-rule:evenodd;clip-rule:evenodd;fill:url(#SVGID_6_);}
	.st16{fill-rule:evenodd;clip-rule:evenodd;fill:#FFFFFF;}
	.st17{fill-rule:evenodd;clip-rule:evenodd;fill:url(#SVGID_7_);}
	.st18{fill-rule:evenodd;clip-rule:evenodd;fill:url(#SVGID_8_);}
	.st19{fill-rule:evenodd;clip-rule:evenodd;fill:url(#SVGID_9_);}
	.st20{fill-rule:evenodd;clip-rule:evenodd;fill:#AB6565;}
	.st21{fill-rule:evenodd;clip-rule:evenodd;fill:url(#SVGID_10_);}
	.st22{fill-rule:evenodd;clip-rule:evenodd;fill:url(#SVGID_11_);}
	.st23{fill-rule:evenodd;clip-rule:evenodd;fill:url(#SVGID_12_);}
	.st24{fill:url(#SVGID_13_);}
	.st25{fill:url(#SVGID_14_);}
	.st26{fill:url(#SVGID_15_);}
	.st27{fill:url(#SVGID_16_);}
	.st28{fill:url(#SVGID_17_);}
	.st29{fill:url(#SVGID_18_);}
	.st30{fill:url(#SVGID_19_);}
	.st31{fill:url(#SVGID_20_);}
	.st32{fill:url(#SVGID_21_);}
	.st33{fill:url(#SVGID_22_);}
	.st34{fill:url(#SVGID_23_);}
	.st35{fill:url(#SVGID_24_);}
	.st36{fill:url(#SVGID_25_);}
	.st37{fill:url(#SVGID_26_);}
	.st38{fill:url(#SVGID_27_);}
	.st39{fill:url(#SVGID_28_);}
	.st40{fill:url(#SVGID_29_);}
	.st41{fill:url(#SVGID_30_);}
	.st42{fill:url(#SVGID_31_);}
	.st43{fill:url(#SVGID_32_);}
	.st44{fill:url(#SVGID_33_);}
	.st45{fill:url(#SVGID_34_);}
	.st46{fill:url(#SVGID_35_);}
	.st47{fill:url(#SVGID_36_);}
</style>
<g id="Слой_1">
	<g id="Слой_8">
		<path class="st0" d="M598.2,135c-45.7-6.5-37.7-71-26-71S491,0,485.2,0h-173c-5.7,0-57.3,78-64,78h-167c0,0-12-22-39-22
			S1.7,75,1.2,86c-0.5,11-5.5,22.5,9,37c14.5,14.5,42,12,42,12H598.2z"/>
	</g>
	<g id="Слой_9">
		<rect x="36" y="58.3" transform="matrix(0.6018 -0.7987 0.7987 0.6018 -64.1733 74.8334)" class="st1" width="14" height="87"/>
		
			<rect x="41" y="79.5" transform="matrix(0.8991 -0.4377 0.4377 0.8991 -30.5992 33.1012)" class="st1" width="31.1" height="6.9"/>
		
			<rect x="114" y="117.5" transform="matrix(0.8991 -0.4377 0.4377 0.8991 -39.8675 68.888)" class="st1" width="31.1" height="6.9"/>
		
			<rect x="339" y="114.5" transform="matrix(0.8991 -0.4377 0.4377 0.8991 -15.8553 167.0705)" class="st1" width="31.1" height="6.9"/>
		
			<rect x="343" y="69.5" transform="matrix(0.8991 -0.4377 0.4377 0.8991 4.2452 164.2816)" class="st1" width="31.1" height="6.9"/>
		
			<rect x="357" y="20.5" transform="matrix(0.8991 -0.4377 0.4377 0.8991 27.1055 165.4662)" class="st1" width="31.1" height="6.9"/>
		
			<rect x="453" y="21.5" transform="matrix(0.8991 -0.4377 0.4377 0.8991 36.3527 207.5874)" class="st1" width="31.1" height="6.9"/>
		
			<rect x="412" y="65.5" transform="matrix(0.8991 -0.4377 0.4377 0.8991 12.9571 194.0802)" class="st1" width="31.1" height="6.9"/>
		
			<rect x="472" y="116.5" transform="matrix(0.8991 -0.4377 0.4377 0.8991 -3.313 225.488)" class="st1" width="31.1" height="6.9"/>
		
			<rect x="396" y="106.5" transform="matrix(0.8991 -0.4377 0.4377 0.8991 -6.6032 191.213)" class="st1" width="31.1" height="6.9"/>
		<rect x="359" y="53.3" transform="matrix(0.6018 -0.7987 0.7987 0.6018 68.4501 330.8139)" class="st1" width="14" height="87"/>
		<rect x="504" y="-11.7" transform="matrix(0.6018 -0.7987 0.7987 0.6018 178.108 420.7362)" class="st1" width="14" height="87"/>
		
			<rect x="480.3" y="14.9" transform="matrix(0.6018 -0.7987 0.7987 0.6018 126.7979 422.7736)" class="st1" width="14" height="138.6"/>
		<path class="st2" d="M331.5,55l8.5-3l-5,41h-6L331.5,55z"/>
		<rect x="301" y="76" class="st2" width="5" height="36"/>
		<rect x="304" y="68.6" transform="matrix(0.4447 -0.8957 0.8957 0.4447 114.3648 324.6664)" class="st2" width="30" height="3"/>
		<rect x="259" y="114.6" transform="matrix(0.4447 -0.8957 0.8957 0.4447 48.1737 309.9051)" class="st2" width="30" height="3"/>
		<rect x="274" y="63.7" transform="matrix(0.8828 -0.4697 0.4697 0.8828 -5.8137 138.9015)" class="st2" width="3" height="34.7"/>
		<path class="st2" d="M241,78l7,0l13,30.7l-2.6,1.4L241,78z"/>
		
			<rect x="226.5" y="114.6" transform="matrix(0.5085 -0.8611 0.8611 0.5085 16.1139 258.5151)" class="st2" width="16" height="1"/>
		<rect x="262" y="98.1" transform="matrix(0.9483 -0.3174 0.3174 0.9483 -17.5733 89.4219)" class="st2" width="7.4" height="1"/>
		<rect x="260.1" y="93.4" transform="matrix(0.796 -0.6053 0.6053 0.796 -2.5979 180.1417)" class="st2" width="11.7" height="1"/>
		<rect x="259.1" y="89.4" transform="matrix(0.796 -0.6053 0.6053 0.796 -0.3807 178.7203)" class="st2" width="11.7" height="1"/>
		
			<rect x="222.5" y="110.6" transform="matrix(0.5085 -0.8611 0.8611 0.5085 17.5921 253.1048)" class="st2" width="16" height="1"/>
		<path class="st2" d="M239.5,78.5H234c0,0-2.5,5.5-3,7.5s3,17.5,3,17.5l5.5,6c0,0,7-8,7-9s-8-7-8.5-9s0-1,2.5-2.5
			S239.5,78.5,239.5,78.5z"/>
		<path class="st3" d="M198,98l-6-4l-2,8l6,27l10.5-4L206,86.5l-3.5,7L198,98z"/>
		<path class="st4" d="M181.5,87.5l-2-1.5l-5.5,15v12.5l4-7c0,0-2.3,4-2.5,1.5S181.5,87.5,181.5,87.5z"/>
		<path class="st4" d="M500.5,22.5l-2-1.5L493,36v12.5l4-7c0,0-2.3,4-2.5,1.5S500.5,22.5,500.5,22.5z"/>
		<path class="st4" d="M457.4,125.2l2.3,1l1.6-15.9l-3.1-12.1l-2.1,7.8c0,0,1.2-4.4,2.1-2.1C459,106.2,457.4,125.2,457.4,125.2z"/>
		<path class="st4" d="M310.4,74.2l2.3,1l1.6-15.9l-3.1-12.1l-2.1,7.8c0,0,1.2-4.4,2.1-2.1C312,55.2,310.4,74.2,310.4,74.2z"/>
		<path class="st4" d="M345.4,123.2l2.3,1l1.6-15.9l-3.1-12.1l-2.1,7.8c0,0,1.2-4.4,2.1-2.1C347,104.2,345.4,123.2,345.4,123.2z"/>
		<path class="st5" d="M133,94.5h-1.5v4l1.5,1.5V94.5z"/>
		<path class="st5" d="M452,29.5h-1.5v4L452,35V29.5z"/>
		<path class="st5" d="M502.7,106.4l1.5-0.4l-1-3.9l-1.8-1.1L502.7,106.4z"/>
		<path class="st5" d="M355.7,55.4l1.5-0.4l-1-3.9l-1.8-1.1L355.7,55.4z"/>
		<path class="st5" d="M390.7,104.4l1.5-0.4l-1-3.9l-1.8-1.1L390.7,104.4z"/>
		<path class="st6" d="M83,84.4c2.1,0.7,1.8,1.5,1,3"/>
		<path class="st6" d="M402,19.4c2.1,0.7,1.8,1.5,1,3"/>
		<path class="st6" d="M553.6,103.8c-2.2-0.2-2.1-1-1.7-2.7"/>
		<path class="st6" d="M406.6,52.9c-2.2-0.2-2.1-1-1.7-2.7"/>
		<path class="st6" d="M441.6,101.8c-2.2-0.2-2.1-1-1.7-2.7"/>
		<path class="st4" d="M22,120l2.5-3l8,7.5L31,128l-9.5-8"/>
		<line class="st6" x1="24.4" y1="99.6" x2="26.4" y2="101.6"/>
		<line class="st6" x1="40.4" y1="67.6" x2="43.4" y2="70.6"/>
		<line class="st7" x1="55.5" y1="112" x2="55.5" y2="113"/>
		<line class="st8" x1="69.5" y1="111" x2="69.5" y2="114"/>
		<path class="st3" d="M54.5,129L32,119.5l1.5,5.5L56,135l6-12.5l8,9l2-2.5l-6.5-9.5l9-2V111l-5.5-7l-2.5,6l-2.5,5l-3-4l1-5.5
			l-2.5-9l-0.5,9l-3.5-3l0.5,11l3.5,8.5L54.5,129z"/>
		<path class="st3" d="M27,69.5l-5.5-2l5.5,9l12.5-15l-2-4.5L27,69.5z"/>
		<line class="st6" x1="37.2" y1="108.6" x2="39.2" y2="109.6"/>
		<line class="st7" x1="40.5" y1="96.9" x2="41.5" y2="100.9"/>
		<line class="st6" x1="40.5" y1="114" x2="40.5" y2="115"/>
		<line class="st6" x1="30.4" y1="78.8" x2="31.4" y2="80.8"/>
		<line class="st6" x1="36.7" y1="86.4" x2="33.7" y2="84.4"/>
		<line class="st6" x1="50.4" y1="69.3" x2="48.4" y2="72.3"/>
		<line class="st6" x1="54.8" y1="69.4" x2="52.8" y2="68.4"/>
		<line class="st6" x1="56.5" y1="84" x2="55.5" y2="74"/>
		<line class="st6" x1="60.2" y1="94.5" x2="63.2" y2="95.5"/>
		<line class="st6" x1="69.4" y1="98.8" x2="70.4" y2="100.8"/>
		<line class="st6" x1="68.6" y1="74.2" x2="67.6" y2="72.2"/>
		<line class="st6" x1="83.2" y1="106.4" x2="81.2" y2="107.4"/>
		<line class="st6" x1="402.2" y1="41.4" x2="400.2" y2="42.4"/>
		<line class="st6" x1="548" y1="82.5" x2="549.7" y2="81"/>
		<line class="st6" x1="401" y1="31.5" x2="402.7" y2="30"/>
		<line class="st6" x1="436" y1="80.5" x2="437.7" y2="79"/>
		<line class="st6" x1="88.5" y1="115.2" x2="87.5" y2="118.2"/>
		<line class="st6" x1="407.5" y1="50.2" x2="406.5" y2="53.2"/>
		<line class="st6" x1="540.7" y1="75.4" x2="540.9" y2="72.2"/>
		<line class="st6" x1="393.7" y1="24.4" x2="393.9" y2="21.2"/>
		<line class="st6" x1="428.7" y1="73.4" x2="428.9" y2="70.2"/>
		<line class="st6" x1="83.6" y1="134.3" x2="80.6" y2="130.3"/>
		<line class="st6" x1="402.6" y1="69.3" x2="399.6" y2="65.3"/>
		<line class="st6" x1="540.7" y1="55.6" x2="544.6" y2="58.7"/>
		<line class="st6" x1="393.7" y1="4.6" x2="397.6" y2="7.7"/>
		<line class="st6" x1="428.7" y1="53.6" x2="432.6" y2="56.7"/>
		<line class="st6" x1="84.4" y1="126.7" x2="86.4" y2="129.7"/>
		<line class="st6" x1="403.4" y1="61.7" x2="405.4" y2="64.7"/>
		<line class="st6" x1="541.8" y1="63.2" x2="539.1" y2="60.7"/>
		<line class="st6" x1="394.8" y1="12.2" x2="392.1" y2="9.7"/>
		<line class="st6" x1="429.8" y1="61.2" x2="427.1" y2="58.7"/>
		<line class="st6" x1="90.2" y1="119.6" x2="92.2" y2="120.6"/>
		<line class="st6" x1="409.2" y1="54.6" x2="411.2" y2="55.6"/>
		<line class="st6" x1="537.9" y1="71.5" x2="535.8" y2="71.1"/>
		<line class="st6" x1="390.9" y1="20.5" x2="388.8" y2="20.1"/>
		<line class="st6" x1="425.9" y1="69.5" x2="423.8" y2="69.1"/>
		<line class="st6" x1="106.5" y1="129" x2="106.5" y2="131"/>
		<line class="st6" x1="425.5" y1="64" x2="425.5" y2="66"/>
		<line class="st6" x1="519.8" y1="66.4" x2="519.3" y2="64.5"/>
		<line class="st6" x1="372.8" y1="15.4" x2="372.3" y2="13.5"/>
		<line class="st6" x1="407.8" y1="64.4" x2="407.3" y2="62.5"/>
		<line class="st6" x1="95.8" y1="120.5" x2="103.8" y2="117.5"/>
		<line class="st6" x1="414.8" y1="55.5" x2="422.8" y2="52.5"/>
		<line class="st6" x1="532.3" y1="72" x2="525.3" y2="76.9"/>
		<line class="st6" x1="385.3" y1="21" x2="378.3" y2="25.9"/>
		<line class="st6" x1="420.3" y1="70" x2="413.3" y2="74.9"/>
		<line class="st6" x1="89.9" y1="95.5" x2="105.9" y2="90.5"/>
		<line class="st6" x1="408.9" y1="30.5" x2="424.9" y2="25.5"/>
		<line class="st6" x1="544.2" y1="94.7" x2="530" y2="103.5"/>
		<line class="st6" x1="397.2" y1="43.7" x2="383" y2="52.5"/>
		<line class="st6" x1="432.2" y1="92.7" x2="418" y2="101.5"/>
		<line class="st6" x1="95.4" y1="83.7" x2="110.4" y2="102.7"/>
		<line class="st6" x1="414.4" y1="18.7" x2="429.4" y2="37.7"/>
		<line class="st6" x1="541.8" y1="107.6" x2="522.6" y2="92.9"/>
		<line class="st6" x1="394.8" y1="56.6" x2="375.6" y2="41.9"/>
		<line class="st6" x1="429.8" y1="105.6" x2="410.6" y2="90.9"/>
		<line class="st6" x1="92.4" y1="89.8" x2="105.4" y2="114.8"/>
		<line class="st6" x1="411.4" y1="24.8" x2="424.4" y2="49.8"/>
		<line class="st6" x1="543.2" y1="100.9" x2="524.4" y2="79.9"/>
		<line class="st6" x1="396.2" y1="49.9" x2="377.4" y2="28.9"/>
		<line class="st6" x1="431.2" y1="98.9" x2="412.4" y2="77.9"/>
		<line class="st6" x1="88.2" y1="109.4" x2="77.2" y2="115.4"/>
		<line class="st6" x1="407.2" y1="44.4" x2="396.2" y2="50.4"/>
		<line class="st6" x1="542.4" y1="80.8" x2="551.5" y2="72.3"/>
		<line class="st6" x1="395.4" y1="29.8" x2="404.5" y2="21.3"/>
		<line class="st6" x1="430.4" y1="78.8" x2="439.5" y2="70.3"/>
		<line class="st6" x1="76.6" y1="114.7" x2="88.6" y2="101.7"/>
		<line class="st6" x1="395.6" y1="49.7" x2="407.6" y2="36.7"/>
		<line class="st6" x1="552.3" y1="72.9" x2="543.9" y2="88.5"/>
		<line class="st6" x1="405.3" y1="21.9" x2="396.9" y2="37.5"/>
		<line class="st6" x1="440.3" y1="70.9" x2="431.9" y2="86.5"/>
		<line class="st6" x1="110.4" y1="117.7" x2="113.4" y2="122.7"/>
		<line class="st6" x1="429.4" y1="52.7" x2="432.4" y2="57.7"/>
		<line class="st6" x1="518.8" y1="78.3" x2="514.7" y2="74.2"/>
		<line class="st6" x1="371.8" y1="27.3" x2="367.7" y2="23.2"/>
		<line class="st6" x1="406.8" y1="76.3" x2="402.7" y2="72.2"/>
		<line class="st6" x1="106.8" y1="123.4" x2="99.8" y2="119.4"/>
		<line class="st6" x1="425.8" y1="58.4" x2="418.8" y2="54.4"/>
		<line class="st6" x1="521" y1="71.9" x2="528.7" y2="74"/>
		<line class="st6" x1="374" y1="20.9" x2="381.7" y2="23"/>
		<line class="st6" x1="409" y1="69.9" x2="416.7" y2="72"/>
		<line class="st6" x1="118" y1="131.5" x2="115" y2="131.5"/>
		<line class="st6" x1="437" y1="66.5" x2="434" y2="66.5"/>
		<line class="st6" x1="508.1" y1="66.8" x2="511" y2="66.1"/>
		<line class="st6" x1="361.1" y1="15.8" x2="364" y2="15.1"/>
		<line class="st6" x1="396.1" y1="64.8" x2="399" y2="64.1"/>
		<line class="st6" x1="115.3" y1="111.6" x2="124.3" y2="117.6"/>
		<line class="st6" x1="434.3" y1="46.6" x2="443.3" y2="52.6"/>
		<line class="st6" x1="515.6" y1="85.5" x2="505.4" y2="81.9"/>
		<line class="st6" x1="368.6" y1="34.5" x2="358.4" y2="30.9"/>
		<line class="st6" x1="403.6" y1="83.5" x2="393.4" y2="79.9"/>
		<line class="st6" x1="135.5" y1="102" x2="135.5" y2="104"/>
		<line class="st6" x1="454.5" y1="37" x2="454.5" y2="39"/>
		<line class="st6" x1="498.4" y1="99.8" x2="497.9" y2="97.8"/>
		<line class="st6" x1="351.4" y1="48.8" x2="350.9" y2="46.8"/>
		<line class="st6" x1="386.4" y1="97.8" x2="385.9" y2="95.8"/>
		<line class="st6" x1="148.5" y1="99.9" x2="149.5" y2="103.9"/>
		<line class="st6" x1="467.5" y1="34.9" x2="468.5" y2="38.9"/>
		<line class="st6" x1="486.4" y1="105" x2="484.4" y2="101.4"/>
		<line class="st6" x1="339.4" y1="54" x2="337.4" y2="50.4"/>
		<line class="st6" x1="374.4" y1="103" x2="372.4" y2="99.4"/>
		<line class="st6" x1="132.5" y1="127" x2="132.5" y2="128"/>
		<line class="st6" x1="451.5" y1="62" x2="451.5" y2="63"/>
		<line class="st6" x1="495.1" y1="74.8" x2="494.9" y2="73.8"/>
		<line class="st6" x1="348.1" y1="23.8" x2="347.9" y2="22.8"/>
		<line class="st6" x1="383.1" y1="72.8" x2="382.9" y2="71.8"/>
		<line class="st6" x1="147.3" y1="110.6" x2="156.3" y2="117.6"/>
		<line class="st6" x1="466.3" y1="45.6" x2="475.3" y2="52.6"/>
		<line class="st6" x1="484.8" y1="94.3" x2="474.4" y2="89.8"/>
		<line class="st6" x1="337.8" y1="43.3" x2="327.4" y2="38.8"/>
		<line class="st6" x1="372.8" y1="92.3" x2="362.4" y2="87.8"/>
		<line class="st6" x1="163.5" y1="93" x2="163.5" y2="94"/>
		<line class="st6" x1="482.5" y1="28" x2="482.5" y2="29"/>
		<line class="st6" x1="473.5" y1="115.4" x2="473.3" y2="114.4"/>
		<line class="st6" x1="326.5" y1="64.4" x2="326.3" y2="63.4"/>
		<line class="st6" x1="361.5" y1="113.4" x2="361.3" y2="112.4"/>
		<line class="st6" x1="142.4" y1="78.7" x2="151.4" y2="90.7"/>
		<line class="st6" x1="461.4" y1="13.7" x2="470.4" y2="25.7"/>
		<line class="st6" x1="497.5" y1="124" x2="485.8" y2="114.6"/>
		<line class="st6" x1="350.5" y1="73" x2="338.8" y2="63.6"/>
		<line class="st6" x1="385.5" y1="122" x2="373.8" y2="112.6"/>
		<line class="st6" x1="142.2" y1="78.6" x2="154.2" y2="84.6"/>
		<line class="st6" x1="461.2" y1="13.6" x2="473.2" y2="19.6"/>
		<line class="st6" x1="497.7" y1="124.1" x2="484.6" y2="121.3"/>
		<line class="st6" x1="350.7" y1="73.1" x2="337.6" y2="70.3"/>
		<line class="st6" x1="385.7" y1="122.1" x2="372.6" y2="119.3"/>
		<line class="st6" x1="175.2" y1="123.4" x2="164.2" y2="129.4"/>
		<line class="st6" x1="494.2" y1="58.4" x2="483.2" y2="64.4"/>
		<line class="st6" x1="454.6" y1="88.8" x2="463.8" y2="80.3"/>
		<line class="st6" x1="307.6" y1="37.8" x2="316.8" y2="29.3"/>
		<line class="st6" x1="342.6" y1="86.8" x2="351.8" y2="78.3"/>
		<line class="st6" x1="175.3" y1="80.6" x2="185.3" y2="87.6"/>
		<line class="st6" x1="494.3" y1="15.6" x2="504.3" y2="22.6"/>
		<line class="st6" x1="465.2" y1="130.3" x2="453.7" y2="126"/>
		<line class="st6" x1="318.2" y1="79.3" x2="306.7" y2="75"/>
		<line class="st6" x1="353.2" y1="128.3" x2="341.7" y2="124"/>
		<line class="st6" x1="168.8" y1="87.6" x2="176.8" y2="83.6"/>
		<line class="st6" x1="487.8" y1="22.6" x2="495.8" y2="18.6"/>
		<line class="st6" x1="469.8" y1="122" x2="463" y2="127.8"/>
		<line class="st6" x1="322.8" y1="71" x2="316" y2="76.8"/>
		<line class="st6" x1="357.8" y1="120" x2="351" y2="125.8"/>
		<line class="st6" x1="182.1" y1="102.5" x2="191.1" y2="104.5"/>
		<line class="st6" x1="187.7" y1="108.6" x2="190.7" y2="106.6"/>
		<line class="st6" x1="216" y1="89.5" x2="223" y2="89.5"/>
		<line class="st6" x1="225.5" y1="96" x2="225.5" y2="88"/>
		<line class="st6" x1="228" y1="128.5" x2="235" y2="128.5"/>
		<line class="st6" x1="251.5" y1="112.2" x2="246.5" y2="123.2"/>
		<line class="st6" x1="257.5" y1="126.1" x2="255.5" y2="135.1"/>
		<line class="st6" x1="279.4" y1="111.8" x2="283.4" y2="119.8"/>
		<line class="st6" x1="278.7" y1="131.4" x2="272.7" y2="126.4"/>
		<line class="st6" x1="299.4" y1="77.2" x2="295.4" y2="84.2"/>
		<line class="st6" x1="283.2" y1="38.5" x2="307.2" y2="46.5"/>
		<line class="st6" x1="285.5" y1="46.8" x2="293.5" y2="67.8"/>
		<line class="st6" x1="306.8" y1="59.6" x2="316.8" y2="54.6"/>
		<line class="st6" x1="318.3" y1="19.4" x2="302.3" y2="31.4"/>
		<line class="st6" x1="299.5" y1="20.1" x2="298.5" y2="27.1"/>
		<line class="st6" x1="347.6" y1="16.3" x2="338.6" y2="1.3"/>
		<line class="st6" x1="346.5" y1="1" x2="347.5" y2="16"/>
		<line class="st6" x1="354.6" y1="44.3" x2="350.6" y2="39.3"/>
		<line class="st6" x1="326.5" y1="30.9" x2="327.5" y2="34.9"/>
		<line class="st6" x1="379.5" y1="49" x2="379.5" y2="54"/>
		<line class="st6" x1="385.6" y1="30.6" x2="387.6" y2="28.6"/>
		<line class="st6" x1="350.5" y1="76.2" x2="349.5" y2="73.2"/>
		<line class="st6" x1="351.5" y1="86.1" x2="350.5" y2="81.1"/>
		<line class="st6" x1="358.5" y1="85.9" x2="360.5" y2="77.9"/>
		<line class="st6" x1="371.5" y1="99.9" x2="374.5" y2="77.9"/>
		<line class="st6" x1="386.4" y1="73.2" x2="384.4" y2="77.2"/>
		<line class="st6" x1="388.6" y1="84.3" x2="383.6" y2="77.3"/>
		<line class="st6" x1="396.4" y1="71.4" x2="391.4" y2="76.4"/>
		<line class="st6" x1="389.4" y1="72.8" x2="390.4" y2="74.8"/>
		<line class="st6" x1="390.4" y1="69.6" x2="392.4" y2="71.6"/>
		<line class="st6" x1="422.5" y1="66.2" x2="419.5" y2="57.2"/>
		<line class="st6" x1="437.4" y1="90.8" x2="440.4" y2="96.8"/>
		<line class="st6" x1="417.4" y1="8.8" x2="419.4" y2="12.8"/>
		<line class="st6" x1="431.5" y1="13" x2="431.5" y2="16"/>
		<line class="st6" x1="455.9" y1="19.5" x2="459.9" y2="18.5"/>
		<line class="st6" x1="490.6" y1="12.7" x2="494.6" y2="6.7"/>
		<line class="st6" x1="507.6" y1="65.7" x2="517.6" y2="49.7"/>
		<line class="st6" x1="457.3" y1="80.4" x2="453.3" y2="83.4"/>
		<line class="st6" x1="453.5" y1="100.1" x2="447.5" y2="127.1"/>
		<line class="st6" x1="550.5" y1="119.8" x2="554.5" y2="128.8"/>
		<rect x="410.4" y="50.9" transform="matrix(0.3639 -0.9314 0.9314 0.3639 195.218 436.734)" class="st2" width="14" height="49"/>
		
			<rect x="455.7" y="79.2" transform="matrix(0.1609 -0.987 0.987 0.1609 314.4953 534.3577)" class="st2" width="31.7" height="6"/>
		
			<rect x="520.6" y="81.2" transform="matrix(0.8517 -0.524 0.524 0.8517 35.0969 294.174)" class="st2" width="33.4" height="7.8"/>
	</g>
</g>
<g id="Слой_7">
	<g id="Слой_6">
		
			<radialGradient id="SVGID_1_" cx="-1100" cy="1448.4948" r="1" gradientTransform="matrix(12 0 0 -11.875 13629.7461 17313.875)" gradientUnits="userSpaceOnUse">
			<stop  offset="0" style="stop-color:#000000"/>
			<stop  offset="1" style="stop-color:#000000;stop-opacity:0"/>
		</radialGradient>
		<path class="st9" d="M443.5,113.5c0,3.7-1.3,6.9-3.9,9.6c-2.6,2.6-5.8,4-9.4,4c-3.7,0-6.9-1.3-9.5-4c-2.6-2.7-3.9-5.8-3.9-9.6
			c0-3.7,1.3-6.9,3.9-9.5c2.6-2.6,5.8-4,9.5-4c3.7,0,6.8,1.3,9.4,4C442.2,106.6,443.5,109.7,443.5,113.5z"/>
		
			<radialGradient id="SVGID_2_" cx="-1125" cy="1453.3636" r="1" gradientTransform="matrix(16 0 0 -12.375 18423.2461 18100.375)" gradientUnits="userSpaceOnUse">
			<stop  offset="0" style="stop-color:#000000"/>
			<stop  offset="1" style="stop-color:#000000;stop-opacity:0"/>
		</radialGradient>
		<path class="st10" d="M440.5,115.5c0,3.7-1.3,6.9-3.9,9.6c-2.6,2.6-5.8,4-9.4,4c-3.7,0-6.9-1.3-9.5-4c-2.6-2.7-3.9-5.8-3.9-9.6
			c0-3.7,1.3-6.9,3.9-9.5c2.6-2.6,5.8-4,9.5-4c3.7,0,6.8,1.3,9.4,4C439.2,108.6,440.5,111.7,440.5,115.5z"/>
		
			<radialGradient id="SVGID_3_" cx="-1117.2155" cy="1564.0294" r="1" gradientTransform="matrix(15.4771 16.357 16.3492 -15.4697 -7862.9478 42578.2695)" gradientUnits="userSpaceOnUse">
			<stop  offset="0" style="stop-color:#FFEC6F"/>
			<stop  offset="6.666670e-02" style="stop-color:#FFEC6E"/>
			<stop  offset="0.1333" style="stop-color:#FEEB6B"/>
			<stop  offset="0.2" style="stop-color:#FCE966"/>
			<stop  offset="0.2667" style="stop-color:#FAE65F"/>
			<stop  offset="0.3333" style="stop-color:#F8E357"/>
			<stop  offset="0.4" style="stop-color:#F4DE4C"/>
			<stop  offset="0.4667" style="stop-color:#F1DA40"/>
			<stop  offset="0.5333" style="stop-color:#EDD534"/>
			<stop  offset="0.6" style="stop-color:#EAD029"/>
			<stop  offset="0.6667" style="stop-color:#E7CC1E"/>
			<stop  offset="0.7333" style="stop-color:#E4C915"/>
			<stop  offset="0.8" style="stop-color:#E2C60E"/>
			<stop  offset="0.8667" style="stop-color:#E0C40A"/>
			<stop  offset="0.9333" style="stop-color:#DFC307"/>
			<stop  offset="1" style="stop-color:#DFC206"/>
		</radialGradient>
		<path class="st11" d="M436.7,115.5c0,3.7-1.3,6.9-3.9,9.6c-2.6,2.6-5.8,4-9.4,4c-3.7,0-6.9-1.3-9.5-4c-2.6-2.7-3.9-5.8-3.9-9.6
			c0-3.7,1.3-6.9,3.9-9.5c2.6-2.6,5.8-4,9.5-4c3.7,0,6.8,1.3,9.4,4C435.4,108.6,436.7,111.7,436.7,115.5z"/>
		<path class="st12" d="M416.4,106.8c1.8,0.1,2,0.9,0.7,2.6c-1.4,1.8-2.4,2.4-2.9,1.8c-0.5-0.5-0.4-1.4,0.1-2.6
			C414.9,107.4,415.6,106.8,416.4,106.8L416.4,106.8z"/>
		<path class="st12" d="M413.5,112.6c0.5,0.1,0.6,0.5,0.4,1.1c-0.2,0.6-0.4,0.8-0.8,0.6c-0.3-0.2-0.4-0.5-0.3-1
			C413,112.7,413.2,112.5,413.5,112.6L413.5,112.6z"/>
	</g>
	<g id="Слой_5">
		
			<radialGradient id="SVGID_4_" cx="-1100" cy="1448.4948" r="1" gradientTransform="matrix(12 0 0 -11.875 13357.7461 17313.875)" gradientUnits="userSpaceOnUse">
			<stop  offset="0" style="stop-color:#000000"/>
			<stop  offset="1" style="stop-color:#000000;stop-opacity:0"/>
		</radialGradient>
		<path class="st13" d="M171.5,113.5c0,3.7-1.3,6.9-3.9,9.6c-2.6,2.6-5.8,4-9.4,4c-3.7,0-6.9-1.3-9.5-4c-2.6-2.7-3.9-5.8-3.9-9.6
			c0-3.7,1.3-6.9,3.9-9.5c2.6-2.6,5.8-4,9.5-4c3.7,0,6.8,1.3,9.4,4C170.2,106.6,171.5,109.7,171.5,113.5z"/>
		
			<radialGradient id="SVGID_5_" cx="-1125" cy="1453.3636" r="1" gradientTransform="matrix(16 0 0 -12.375 18151.2461 18100.375)" gradientUnits="userSpaceOnUse">
			<stop  offset="0" style="stop-color:#000000"/>
			<stop  offset="1" style="stop-color:#000000;stop-opacity:0"/>
		</radialGradient>
		<path class="st14" d="M168.5,115.5c0,3.7-1.3,6.9-3.9,9.6c-2.6,2.6-5.8,4-9.4,4c-3.7,0-6.9-1.3-9.5-4c-2.6-2.7-3.9-5.8-3.9-9.6
			c0-3.7,1.3-6.9,3.9-9.5c2.6-2.6,5.8-4,9.5-4c3.7,0,6.8,1.3,9.4,4C167.2,108.6,168.5,111.7,168.5,115.5z"/>
		
			<radialGradient id="SVGID_6_" cx="-1117.2155" cy="1564.0294" r="1" gradientTransform="matrix(15.4771 16.357 16.3492 -15.4697 -8134.9478 42578.2695)" gradientUnits="userSpaceOnUse">
			<stop  offset="0" style="stop-color:#F3F3F3"/>
			<stop  offset="6.666670e-02" style="stop-color:#F3F3F3"/>
			<stop  offset="0.1333" style="stop-color:#F2F2F2"/>
			<stop  offset="0.2" style="stop-color:#EFEFEF"/>
			<stop  offset="0.2667" style="stop-color:#ECECEC"/>
			<stop  offset="0.3333" style="stop-color:#E8E8E8"/>
			<stop  offset="0.4" style="stop-color:#E3E3E3"/>
			<stop  offset="0.4667" style="stop-color:#DDDDDD"/>
			<stop  offset="0.5333" style="stop-color:#D7D7D7"/>
			<stop  offset="0.6" style="stop-color:#D2D2D2"/>
			<stop  offset="0.6667" style="stop-color:#CDCDCD"/>
			<stop  offset="0.7333" style="stop-color:#C9C9C9"/>
			<stop  offset="0.8" style="stop-color:#C5C5C5"/>
			<stop  offset="0.8667" style="stop-color:#C3C3C3"/>
			<stop  offset="0.9333" style="stop-color:#C2C2C2"/>
			<stop  offset="1" style="stop-color:#C1C1C1"/>
		</radialGradient>
		<path class="st15" d="M164.7,115.5c0,3.7-1.3,6.9-3.9,9.6c-2.6,2.6-5.8,4-9.4,4c-3.7,0-6.9-1.3-9.5-4c-2.6-2.7-3.9-5.8-3.9-9.6
			c0-3.7,1.3-6.9,3.9-9.5c2.6-2.6,5.8-4,9.5-4c3.7,0,6.8,1.3,9.4,4C163.4,108.6,164.7,111.7,164.7,115.5z"/>
		<path class="st16" d="M144.4,106.8c1.8,0.1,2,0.9,0.7,2.6c-1.4,1.8-2.4,2.4-2.9,1.8c-0.5-0.5-0.4-1.4,0.1-2.6
			C142.9,107.4,143.6,106.8,144.4,106.8L144.4,106.8z"/>
		<path class="st16" d="M141.5,112.6c0.5,0.1,0.6,0.5,0.4,1.1c-0.2,0.6-0.4,0.8-0.8,0.6c-0.3-0.2-0.4-0.5-0.3-1
			C141,112.7,141.2,112.5,141.5,112.6L141.5,112.6z"/>
	</g>
	<g id="Слой_4">
		
			<radialGradient id="SVGID_7_" cx="-1100" cy="1448.4948" r="1" gradientTransform="matrix(12 0 0 -11.875 13532.7461 17255.875)" gradientUnits="userSpaceOnUse">
			<stop  offset="0" style="stop-color:#000000"/>
			<stop  offset="1" style="stop-color:#000000;stop-opacity:0"/>
		</radialGradient>
		<path class="st17" d="M346.5,55.5c0,3.7-1.3,6.9-3.9,9.6c-2.6,2.6-5.8,4-9.4,4c-3.7,0-6.9-1.3-9.5-4c-2.6-2.7-3.9-5.8-3.9-9.6
			c0-3.7,1.3-6.9,3.9-9.5c2.6-2.6,5.8-4,9.5-4c3.7,0,6.8,1.3,9.4,4C345.2,48.6,346.5,51.7,346.5,55.5z"/>
		
			<radialGradient id="SVGID_8_" cx="-1125" cy="1453.3636" r="1" gradientTransform="matrix(16 0 0 -12.375 18326.2461 18042.375)" gradientUnits="userSpaceOnUse">
			<stop  offset="0" style="stop-color:#000000"/>
			<stop  offset="1" style="stop-color:#000000;stop-opacity:0"/>
		</radialGradient>
		<path class="st18" d="M343.5,57.5c0,3.7-1.3,6.9-3.9,9.6c-2.6,2.6-5.8,4-9.4,4c-3.7,0-6.9-1.3-9.5-4c-2.6-2.7-3.9-5.8-3.9-9.6
			c0-3.7,1.3-6.9,3.9-9.5c2.6-2.6,5.8-4,9.5-4c3.7,0,6.8,1.3,9.4,4C342.2,50.6,343.5,53.7,343.5,57.5z"/>
		
			<radialGradient id="SVGID_9_" cx="-1117.2155" cy="1564.0294" r="1" gradientTransform="matrix(15.4771 16.357 16.3492 -15.4697 -7959.9478 42520.2695)" gradientUnits="userSpaceOnUse">
			<stop  offset="0" style="stop-color:#964E4E"/>
			<stop  offset="6.666670e-02" style="stop-color:#954D4D"/>
			<stop  offset="0.1333" style="stop-color:#944B4B"/>
			<stop  offset="0.2" style="stop-color:#914848"/>
			<stop  offset="0.2667" style="stop-color:#8D4444"/>
			<stop  offset="0.3333" style="stop-color:#883E3E"/>
			<stop  offset="0.4" style="stop-color:#823636"/>
			<stop  offset="0.4667" style="stop-color:#7B2F2F"/>
			<stop  offset="0.5333" style="stop-color:#752626"/>
			<stop  offset="0.6" style="stop-color:#6E1F1F"/>
			<stop  offset="0.6667" style="stop-color:#681717"/>
			<stop  offset="0.7333" style="stop-color:#631111"/>
			<stop  offset="0.8" style="stop-color:#5F0D0D"/>
			<stop  offset="0.8667" style="stop-color:#5C0A0A"/>
			<stop  offset="0.9333" style="stop-color:#5B0808"/>
			<stop  offset="1" style="stop-color:#5A0707"/>
		</radialGradient>
		<path class="st19" d="M339.7,57.5c0,3.7-1.3,6.9-3.9,9.6c-2.6,2.6-5.8,4-9.4,4c-3.7,0-6.9-1.3-9.5-4c-2.6-2.7-3.9-5.8-3.9-9.6
			c0-3.7,1.3-6.9,3.9-9.5c2.6-2.6,5.8-4,9.5-4c3.7,0,6.8,1.3,9.4,4C338.4,50.6,339.7,53.7,339.7,57.5z"/>
		<path class="st20" d="M319.4,48.8c1.8,0.1,2,0.9,0.7,2.6c-1.4,1.8-2.4,2.4-2.9,1.8c-0.5-0.5-0.4-1.4,0.1-2.6
			C317.9,49.4,318.6,48.8,319.4,48.8L319.4,48.8z"/>
		<path class="st20" d="M316.5,54.6c0.5,0.1,0.6,0.5,0.4,1.1c-0.2,0.6-0.4,0.8-0.8,0.5c-0.3-0.2-0.4-0.5-0.3-1
			C316,54.7,316.2,54.5,316.5,54.6L316.5,54.6z"/>
	</g>
	<g id="Слой_3">
		
			<radialGradient id="SVGID_10_" cx="-1100" cy="1448.4948" r="1" gradientTransform="matrix(12 0 0 -11.875 13504.7461 17313.875)" gradientUnits="userSpaceOnUse">
			<stop  offset="0" style="stop-color:#000000"/>
			<stop  offset="1" style="stop-color:#000000;stop-opacity:0"/>
		</radialGradient>
		<path class="st21" d="M318.5,113.5c0,3.7-1.3,6.9-3.9,9.6c-2.6,2.6-5.8,4-9.4,4c-3.7,0-6.9-1.3-9.5-4c-2.6-2.7-3.9-5.8-3.9-9.6
			c0-3.7,1.3-6.9,3.9-9.5c2.6-2.6,5.8-4,9.5-4c3.7,0,6.8,1.3,9.4,4C317.2,106.6,318.5,109.7,318.5,113.5z"/>
		
			<radialGradient id="SVGID_11_" cx="-1125" cy="1453.3636" r="1" gradientTransform="matrix(16 0 0 -12.375 18298.2461 18100.375)" gradientUnits="userSpaceOnUse">
			<stop  offset="0" style="stop-color:#000000"/>
			<stop  offset="1" style="stop-color:#000000;stop-opacity:0"/>
		</radialGradient>
		<path class="st22" d="M315.5,115.5c0,3.7-1.3,6.9-3.9,9.6c-2.6,2.6-5.8,4-9.4,4c-3.7,0-6.9-1.3-9.5-4c-2.6-2.7-3.9-5.8-3.9-9.6
			c0-3.7,1.3-6.9,3.9-9.5c2.6-2.6,5.8-4,9.5-4c3.7,0,6.8,1.3,9.4,4C314.2,108.6,315.5,111.7,315.5,115.5z"/>
		
			<radialGradient id="SVGID_12_" cx="-1117.2155" cy="1564.0294" r="1" gradientTransform="matrix(15.4771 16.357 16.3492 -15.4697 -7987.9478 42578.2695)" gradientUnits="userSpaceOnUse">
			<stop  offset="0" style="stop-color:#FFEC6F"/>
			<stop  offset="6.666670e-02" style="stop-color:#FFEC6E"/>
			<stop  offset="0.1333" style="stop-color:#FEEB6B"/>
			<stop  offset="0.2" style="stop-color:#FCE966"/>
			<stop  offset="0.2667" style="stop-color:#FAE65F"/>
			<stop  offset="0.3333" style="stop-color:#F8E357"/>
			<stop  offset="0.4" style="stop-color:#F4DE4C"/>
			<stop  offset="0.4667" style="stop-color:#F1DA40"/>
			<stop  offset="0.5333" style="stop-color:#EDD534"/>
			<stop  offset="0.6" style="stop-color:#EAD029"/>
			<stop  offset="0.6667" style="stop-color:#E7CC1E"/>
			<stop  offset="0.7333" style="stop-color:#E4C915"/>
			<stop  offset="0.8" style="stop-color:#E2C60E"/>
			<stop  offset="0.8667" style="stop-color:#E0C40A"/>
			<stop  offset="0.9333" style="stop-color:#DFC307"/>
			<stop  offset="1" style="stop-color:#DFC206"/>
		</radialGradient>
		<path class="st23" d="M311.7,115.5c0,3.7-1.3,6.9-3.9,9.6c-2.6,2.6-5.8,4-9.4,4c-3.7,0-6.9-1.3-9.5-4c-2.6-2.7-3.9-5.8-3.9-9.6
			c0-3.7,1.3-6.9,3.9-9.5c2.6-2.6,5.8-4,9.5-4c3.7,0,6.8,1.3,9.4,4C310.4,108.6,311.7,111.7,311.7,115.5z"/>
		<path class="st12" d="M291.4,106.8c1.8,0.1,2,0.9,0.7,2.6c-1.4,1.8-2.4,2.4-2.9,1.8c-0.5-0.5-0.4-1.4,0.1-2.6
			C289.9,107.4,290.6,106.8,291.4,106.8L291.4,106.8z"/>
		<path class="st12" d="M288.5,112.6c0.5,0.1,0.6,0.5,0.4,1.1c-0.2,0.6-0.4,0.8-0.8,0.6c-0.3-0.2-0.4-0.5-0.3-1
			C288,112.7,288.2,112.5,288.5,112.6L288.5,112.6z"/>
	</g>
</g>
<g id="Слой_2">
	
		<radialGradient id="SVGID_13_" cx="-1285.7142" cy="1634.0454" r="1" gradientTransform="matrix(-14 0 0 22 -17448.5 -35837)" gradientUnits="userSpaceOnUse">
		<stop  offset="0" style="stop-color:#FFFFFF"/>
		<stop  offset="1" style="stop-color:#BFBFBF"/>
	</radialGradient>
	<circle class="st24" cx="544" cy="112" r="10"/>
	
		<radialGradient id="SVGID_14_" cx="-1285.7142" cy="1634.0454" r="1" gradientTransform="matrix(-14 0 0 22 -17478.5 -35837)" gradientUnits="userSpaceOnUse">
		<stop  offset="0" style="stop-color:#FFFFFF"/>
		<stop  offset="1" style="stop-color:#BFBFBF"/>
	</radialGradient>
	<circle class="st25" cx="514" cy="112" r="10"/>
	
		<radialGradient id="SVGID_15_" cx="-1285.7142" cy="1634.0454" r="1" gradientTransform="matrix(-14 0 0 22 -17508.5 -35836)" gradientUnits="userSpaceOnUse">
		<stop  offset="0" style="stop-color:#FFFFFF"/>
		<stop  offset="1" style="stop-color:#BFBFBF"/>
	</radialGradient>
	<circle class="st26" cx="484" cy="113" r="10"/>
	
		<radialGradient id="SVGID_16_" cx="-1285.7142" cy="1634.0454" r="1" gradientTransform="matrix(-14 0 0 22 -17510.5 -35866)" gradientUnits="userSpaceOnUse">
		<stop  offset="0" style="stop-color:#FFFFFF"/>
		<stop  offset="1" style="stop-color:#BFBFBF"/>
	</radialGradient>
	<circle class="st27" cx="482" cy="83" r="10"/>
	
		<radialGradient id="SVGID_17_" cx="-1285.7142" cy="1634.0454" r="1" gradientTransform="matrix(-14 0 0 22 -17511.5 -35894)" gradientUnits="userSpaceOnUse">
		<stop  offset="0" style="stop-color:#FFFFFF"/>
		<stop  offset="1" style="stop-color:#BFBFBF"/>
	</radialGradient>
	<circle class="st28" cx="481" cy="55" r="10"/>
	
		<radialGradient id="SVGID_18_" cx="-1285.7142" cy="1634.0454" r="1" gradientTransform="matrix(-14 0 0 22 -17513.5 -35924)" gradientUnits="userSpaceOnUse">
		<stop  offset="0" style="stop-color:#FFFFFF"/>
		<stop  offset="1" style="stop-color:#BFBFBF"/>
	</radialGradient>
	<circle class="st29" cx="479" cy="25" r="10"/>
	
		<radialGradient id="SVGID_19_" cx="-1285.7142" cy="1634.0454" r="1" gradientTransform="matrix(-14 0 0 22 -17544.5 -35924)" gradientUnits="userSpaceOnUse">
		<stop  offset="0" style="stop-color:#FFFFFF"/>
		<stop  offset="1" style="stop-color:#BFBFBF"/>
	</radialGradient>
	<circle class="st30" cx="448" cy="25" r="10"/>
	
		<radialGradient id="SVGID_20_" cx="-1285.7142" cy="1634.0454" r="1" gradientTransform="matrix(-14 0 0 22 -17574.5 -35924)" gradientUnits="userSpaceOnUse">
		<stop  offset="0" style="stop-color:#FFFFFF"/>
		<stop  offset="1" style="stop-color:#BFBFBF"/>
	</radialGradient>
	<circle class="st31" cx="418" cy="25" r="10"/>
	
		<radialGradient id="SVGID_21_" cx="-1285.7142" cy="1634.0454" r="1" gradientTransform="matrix(-14 0 0 22 -17598.5 -35836)" gradientUnits="userSpaceOnUse">
		<stop  offset="0" style="stop-color:#FFFFFF"/>
		<stop  offset="1" style="stop-color:#BFBFBF"/>
	</radialGradient>
	<circle class="st32" cx="394" cy="113" r="10"/>
	
		<radialGradient id="SVGID_22_" cx="-1285.7142" cy="1634.0454" r="1" gradientTransform="matrix(-14 0 0 22 -17629.5 -35836)" gradientUnits="userSpaceOnUse">
		<stop  offset="0" style="stop-color:#FFFFFF"/>
		<stop  offset="1" style="stop-color:#BFBFBF"/>
	</radialGradient>
	<circle class="st33" cx="363" cy="113" r="10"/>
	
		<radialGradient id="SVGID_23_" cx="-1285.7142" cy="1634.0454" r="1" gradientTransform="matrix(-14 0 0 22 -17660.5 -35836)" gradientUnits="userSpaceOnUse">
		<stop  offset="0" style="stop-color:#FFFFFF"/>
		<stop  offset="1" style="stop-color:#BFBFBF"/>
	</radialGradient>
	<circle class="st34" cx="332" cy="113" r="10"/>
	
		<radialGradient id="SVGID_24_" cx="-1285.7142" cy="1634.0454" r="1" gradientTransform="matrix(-14 0 0 22 -17661.5 -35863)" gradientUnits="userSpaceOnUse">
		<stop  offset="0" style="stop-color:#FFFFFF"/>
		<stop  offset="1" style="stop-color:#BFBFBF"/>
	</radialGradient>
	<circle class="st35" cx="331" cy="86" r="10"/>
	
		<radialGradient id="SVGID_25_" cx="-1285.7142" cy="1634.0454" r="1" gradientTransform="matrix(-14 0 0 22 -17693.5 -35893)" gradientUnits="userSpaceOnUse">
		<stop  offset="0" style="stop-color:#FFFFFF"/>
		<stop  offset="1" style="stop-color:#BFBFBF"/>
	</radialGradient>
	<circle class="st36" cx="299" cy="56" r="10"/>
	
		<radialGradient id="SVGID_26_" cx="-1285.7142" cy="1634.0454" r="1" gradientTransform="matrix(-14 0 0 22 -17664.5 -35921)" gradientUnits="userSpaceOnUse">
		<stop  offset="0" style="stop-color:#FFFFFF"/>
		<stop  offset="1" style="stop-color:#BFBFBF"/>
	</radialGradient>
	<circle class="st37" cx="328" cy="28" r="10"/>
	
		<radialGradient id="SVGID_27_" cx="-1285.7142" cy="1634.0454" r="1" gradientTransform="matrix(-14 0 0 22 -17633.5 -35893)" gradientUnits="userSpaceOnUse">
		<stop  offset="0" style="stop-color:#FFFFFF"/>
		<stop  offset="1" style="stop-color:#BFBFBF"/>
	</radialGradient>
	<circle class="st38" cx="359" cy="56" r="10"/>
	
		<radialGradient id="SVGID_28_" cx="-1285.7142" cy="1634.0454" r="1" gradientTransform="matrix(-14 0 0 22 -17722.5 -35836)" gradientUnits="userSpaceOnUse">
		<stop  offset="0" style="stop-color:#FFFFFF"/>
		<stop  offset="1" style="stop-color:#BFBFBF"/>
	</radialGradient>
	<circle class="st39" cx="270" cy="113" r="10"/>
	
		<radialGradient id="SVGID_29_" cx="-1285.7142" cy="1634.0454" r="1" gradientTransform="matrix(-14 0 0 22 -17752.5 -35836)" gradientUnits="userSpaceOnUse">
		<stop  offset="0" style="stop-color:#FFFFFF"/>
		<stop  offset="1" style="stop-color:#BFBFBF"/>
	</radialGradient>
	<circle class="st40" cx="240" cy="113" r="10"/>
	
		<radialGradient id="SVGID_30_" cx="-1285.7142" cy="1634.0454" r="1" gradientTransform="matrix(-14 0 0 22 -17781.5 -35836)" gradientUnits="userSpaceOnUse">
		<stop  offset="0" style="stop-color:#FFFFFF"/>
		<stop  offset="1" style="stop-color:#BFBFBF"/>
	</radialGradient>
	<circle class="st41" cx="211" cy="113" r="10"/>
	
		<radialGradient id="SVGID_31_" cx="-1285.7142" cy="1634.0454" r="1" gradientTransform="matrix(-14 0 0 22 -17811.5 -35836)" gradientUnits="userSpaceOnUse">
		<stop  offset="0" style="stop-color:#FFFFFF"/>
		<stop  offset="1" style="stop-color:#BFBFBF"/>
	</radialGradient>
	<circle class="st42" cx="181" cy="113" r="10"/>
	
		<radialGradient id="SVGID_32_" cx="-1285.7142" cy="1634.0454" r="1" gradientTransform="matrix(-14 0 0 22 -17869.5 -35836)" gradientUnits="userSpaceOnUse">
		<stop  offset="0" style="stop-color:#FFFFFF"/>
		<stop  offset="1" style="stop-color:#BFBFBF"/>
	</radialGradient>
	<circle class="st43" cx="123" cy="113" r="10"/>
	
		<radialGradient id="SVGID_33_" cx="-1285.7142" cy="1634.0454" r="1" gradientTransform="matrix(-14 0 0 22 -17898.5 -35836)" gradientUnits="userSpaceOnUse">
		<stop  offset="0" style="stop-color:#FFFFFF"/>
		<stop  offset="1" style="stop-color:#BFBFBF"/>
	</radialGradient>
	<circle class="st44" cx="94" cy="113" r="10"/>
	
		<radialGradient id="SVGID_34_" cx="-1285.7142" cy="1634.0454" r="1" gradientTransform="matrix(-14 0 0 22 -17927.5 -35836)" gradientUnits="userSpaceOnUse">
		<stop  offset="0" style="stop-color:#FFFFFF"/>
		<stop  offset="1" style="stop-color:#BFBFBF"/>
	</radialGradient>
	<circle class="st45" cx="65" cy="113" r="10"/>
	
		<radialGradient id="SVGID_35_" cx="-1285.7142" cy="1634.0454" r="1" gradientTransform="matrix(-14 0 0 22 -17957.5 -35850)" gradientUnits="userSpaceOnUse">
		<stop  offset="0" style="stop-color:#FFFFFF"/>
		<stop  offset="1" style="stop-color:#BFBFBF"/>
	</radialGradient>
	<circle class="st46" cx="35" cy="99" r="10"/>
	
		<radialGradient id="SVGID_36_" cx="-1285.7142" cy="1634.0454" r="1" gradientTransform="matrix(-14 0 0 22 -17538.5 -35836)" gradientUnits="userSpaceOnUse">
		<stop  offset="0" style="stop-color:#FFFFFF"/>
		<stop  offset="1" style="stop-color:#BFBFBF"/>
	</radialGradient>
	<circle class="st47" cx="454" cy="113" r="10"/>
</g>
</svg>
