<?xml version="1.0" encoding="utf-8"?>
<!-- Generator: Adobe Illustrator 23.0.3, SVG Export Plug-In . SVG Version: 6.00 Build 0)  -->
<svg version="1.1" xmlns="http://www.w3.org/2000/svg" xmlns:xlink="http://www.w3.org/1999/xlink" x="0px" y="0px"
	 viewBox="0 0 599 136" style="enable-background:new 0 0 599 136;" xml:space="preserve">
<style type="text/css">
	.st0{fill:#FFF9CB;}
	.st1{fill-rule:evenodd;clip-rule:evenodd;fill:url(#SVGID_1_);}
	.st2{fill-rule:evenodd;clip-rule:evenodd;fill:url(#SVGID_2_);}
	.st3{fill-rule:evenodd;clip-rule:evenodd;fill:url(#SVGID_3_);}
	.st4{fill-rule:evenodd;clip-rule:evenodd;fill:#FFF4AB;}
	.st5{fill-rule:evenodd;clip-rule:evenodd;fill:url(#SVGID_4_);}
	.st6{fill-rule:evenodd;clip-rule:evenodd;fill:url(#SVGID_5_);}
	.st7{fill-rule:evenodd;clip-rule:evenodd;fill:url(#SVGID_6_);}
	.st8{fill-rule:evenodd;clip-rule:evenodd;fill:#FFFFFF;}
	.st9{fill-rule:evenodd;clip-rule:evenodd;fill:url(#SVGID_7_);}
	.st10{fill-rule:evenodd;clip-rule:evenodd;fill:url(#SVGID_8_);}
	.st11{fill-rule:evenodd;clip-rule:evenodd;fill:url(#SVGID_9_);}
	.st12{fill-rule:evenodd;clip-rule:evenodd;fill:#AB6565;}
	.st13{fill-rule:evenodd;clip-rule:evenodd;fill:url(#SVGID_10_);}
	.st14{fill-rule:evenodd;clip-rule:evenodd;fill:url(#SVGID_11_);}
	.st15{fill-rule:evenodd;clip-rule:evenodd;fill:url(#SVGID_12_);}
	.st16{fill:#BFBB98;}
	.st17{fill:url(#SVGID_13_);}
	.st18{fill:url(#SVGID_14_);}
	.st19{fill:url(#SVGID_15_);}
	.st20{fill:url(#SVGID_16_);}
	.st21{fill:url(#SVGID_17_);}
	.st22{fill:url(#SVGID_18_);}
	.st23{fill:url(#SVGID_19_);}
	.st24{fill:url(#SVGID_20_);}
	.st25{fill:url(#SVGID_21_);}
	.st26{fill:url(#SVGID_22_);}
	.st27{fill:url(#SVGID_23_);}
	.st28{fill:url(#SVGID_24_);}
	.st29{fill:url(#SVGID_25_);}
	.st30{fill:url(#SVGID_26_);}
	.st31{fill:url(#SVGID_27_);}
	.st32{fill:url(#SVGID_28_);}
	.st33{fill:url(#SVGID_29_);}
	.st34{fill:url(#SVGID_30_);}
	.st35{fill:url(#SVGID_31_);}
	.st36{fill:url(#SVGID_32_);}
	.st37{fill:url(#SVGID_33_);}
	.st38{fill:url(#SVGID_34_);}
	.st39{fill:url(#SVGID_35_);}
	.st40{fill:url(#SVGID_36_);}
</style>
<g id="Слой_8">
	<path class="st0" d="M598.2,135c-45.7-6.5-37.7-71-26-71S491,0,485.2,0h-173c-5.7,0-57.3,78-64,78h-167c0,0-12-22-39-22
		S1.7,75,1.2,86c-0.5,11-5.5,22.5,9,37c14.5,14.5,42,12,42,12H598.2z"/>
</g>
<g id="Слой_7">
	<g id="Слой_6">
		
			<radialGradient id="SVGID_1_" cx="-1100" cy="1448.4948" r="1" gradientTransform="matrix(12 0 0 -11.875 13629.7461 17313.875)" gradientUnits="userSpaceOnUse">
			<stop  offset="0" style="stop-color:#808080"/>
			<stop  offset="1" style="stop-color:#808080;stop-opacity:0"/>
		</radialGradient>
		<path class="st1" d="M443.5,113.5c0,3.7-1.3,6.9-3.9,9.6c-2.6,2.6-5.8,4-9.4,4c-3.7,0-6.9-1.3-9.5-4c-2.6-2.7-3.9-5.8-3.9-9.6
			c0-3.7,1.3-6.9,3.9-9.5c2.6-2.6,5.8-4,9.5-4c3.7,0,6.8,1.3,9.4,4C442.2,106.6,443.5,109.7,443.5,113.5z"/>
		
			<radialGradient id="SVGID_2_" cx="-1125" cy="1453.3636" r="1" gradientTransform="matrix(16 0 0 -12.375 18423.2461 18100.375)" gradientUnits="userSpaceOnUse">
			<stop  offset="0" style="stop-color:#808080"/>
			<stop  offset="1" style="stop-color:#808080;stop-opacity:0"/>
		</radialGradient>
		<path class="st2" d="M440.5,115.5c0,3.7-1.3,6.9-3.9,9.6c-2.6,2.6-5.8,4-9.4,4c-3.7,0-6.9-1.3-9.5-4c-2.6-2.7-3.9-5.8-3.9-9.6
			c0-3.7,1.3-6.9,3.9-9.5c2.6-2.6,5.8-4,9.5-4c3.7,0,6.8,1.3,9.4,4C439.2,108.6,440.5,111.7,440.5,115.5z"/>
		
			<radialGradient id="SVGID_3_" cx="-1117.2155" cy="1564.0294" r="1" gradientTransform="matrix(15.4771 16.357 16.3492 -15.4697 -7862.9478 42578.2695)" gradientUnits="userSpaceOnUse">
			<stop  offset="0" style="stop-color:#FFEC6F"/>
			<stop  offset="6.666670e-02" style="stop-color:#FFEC6E"/>
			<stop  offset="0.1333" style="stop-color:#FEEB6B"/>
			<stop  offset="0.2" style="stop-color:#FCE966"/>
			<stop  offset="0.2667" style="stop-color:#FAE65F"/>
			<stop  offset="0.3333" style="stop-color:#F8E357"/>
			<stop  offset="0.4" style="stop-color:#F4DE4C"/>
			<stop  offset="0.4667" style="stop-color:#F1DA40"/>
			<stop  offset="0.5333" style="stop-color:#EDD534"/>
			<stop  offset="0.6" style="stop-color:#EAD029"/>
			<stop  offset="0.6667" style="stop-color:#E7CC1E"/>
			<stop  offset="0.7333" style="stop-color:#E4C915"/>
			<stop  offset="0.8" style="stop-color:#E2C60E"/>
			<stop  offset="0.8667" style="stop-color:#E0C40A"/>
			<stop  offset="0.9333" style="stop-color:#DFC307"/>
			<stop  offset="1" style="stop-color:#DFC206"/>
		</radialGradient>
		<path class="st3" d="M436.7,115.5c0,3.7-1.3,6.9-3.9,9.6c-2.6,2.6-5.8,4-9.4,4c-3.7,0-6.9-1.3-9.5-4c-2.6-2.7-3.9-5.8-3.9-9.6
			c0-3.7,1.3-6.9,3.9-9.5c2.6-2.6,5.8-4,9.5-4c3.7,0,6.8,1.3,9.4,4C435.4,108.6,436.7,111.7,436.7,115.5z"/>
		<path class="st4" d="M416.4,106.8c1.8,0.1,2,0.9,0.7,2.6c-1.4,1.8-2.4,2.4-2.9,1.8c-0.5-0.5-0.4-1.4,0.1-2.6
			C414.9,107.4,415.6,106.8,416.4,106.8L416.4,106.8z"/>
		<path class="st4" d="M413.5,112.6c0.5,0.1,0.6,0.5,0.4,1.1c-0.2,0.6-0.4,0.8-0.8,0.6c-0.3-0.2-0.4-0.5-0.3-1
			C413,112.7,413.2,112.5,413.5,112.6L413.5,112.6z"/>
	</g>
	<g id="Слой_5">
		
			<radialGradient id="SVGID_4_" cx="-1100" cy="1448.4948" r="1" gradientTransform="matrix(12 0 0 -11.875 13357.7461 17313.875)" gradientUnits="userSpaceOnUse">
			<stop  offset="0" style="stop-color:#808080"/>
			<stop  offset="1" style="stop-color:#808080;stop-opacity:0"/>
		</radialGradient>
		<path class="st5" d="M171.5,113.5c0,3.7-1.3,6.9-3.9,9.6c-2.6,2.6-5.8,4-9.4,4c-3.7,0-6.9-1.3-9.5-4c-2.6-2.7-3.9-5.8-3.9-9.6
			c0-3.7,1.3-6.9,3.9-9.5c2.6-2.6,5.8-4,9.5-4c3.7,0,6.8,1.3,9.4,4C170.2,106.6,171.5,109.7,171.5,113.5z"/>
		
			<radialGradient id="SVGID_5_" cx="-1125" cy="1453.3636" r="1" gradientTransform="matrix(16 0 0 -12.375 18151.2461 18100.375)" gradientUnits="userSpaceOnUse">
			<stop  offset="0" style="stop-color:#808080"/>
			<stop  offset="1" style="stop-color:#808080;stop-opacity:0"/>
		</radialGradient>
		<path class="st6" d="M168.5,115.5c0,3.7-1.3,6.9-3.9,9.6c-2.6,2.6-5.8,4-9.4,4c-3.7,0-6.9-1.3-9.5-4c-2.6-2.7-3.9-5.8-3.9-9.6
			c0-3.7,1.3-6.9,3.9-9.5c2.6-2.6,5.8-4,9.5-4c3.7,0,6.8,1.3,9.4,4C167.2,108.6,168.5,111.7,168.5,115.5z"/>
		
			<radialGradient id="SVGID_6_" cx="-1117.2155" cy="1564.0294" r="1" gradientTransform="matrix(15.4771 16.357 16.3492 -15.4697 -8134.9478 42578.2695)" gradientUnits="userSpaceOnUse">
			<stop  offset="0" style="stop-color:#F3F3F3"/>
			<stop  offset="6.666670e-02" style="stop-color:#F3F3F3"/>
			<stop  offset="0.1333" style="stop-color:#F2F2F2"/>
			<stop  offset="0.2" style="stop-color:#EFEFEF"/>
			<stop  offset="0.2667" style="stop-color:#ECECEC"/>
			<stop  offset="0.3333" style="stop-color:#E8E8E8"/>
			<stop  offset="0.4" style="stop-color:#E3E3E3"/>
			<stop  offset="0.4667" style="stop-color:#DDDDDD"/>
			<stop  offset="0.5333" style="stop-color:#D7D7D7"/>
			<stop  offset="0.6" style="stop-color:#D2D2D2"/>
			<stop  offset="0.6667" style="stop-color:#CDCDCD"/>
			<stop  offset="0.7333" style="stop-color:#C9C9C9"/>
			<stop  offset="0.8" style="stop-color:#C5C5C5"/>
			<stop  offset="0.8667" style="stop-color:#C3C3C3"/>
			<stop  offset="0.9333" style="stop-color:#C2C2C2"/>
			<stop  offset="1" style="stop-color:#C1C1C1"/>
		</radialGradient>
		<path class="st7" d="M164.7,115.5c0,3.7-1.3,6.9-3.9,9.6c-2.6,2.6-5.8,4-9.4,4c-3.7,0-6.9-1.3-9.5-4c-2.6-2.7-3.9-5.8-3.9-9.6
			c0-3.7,1.3-6.9,3.9-9.5c2.6-2.6,5.8-4,9.5-4c3.7,0,6.8,1.3,9.4,4C163.4,108.6,164.7,111.7,164.7,115.5z"/>
		<path class="st8" d="M144.4,106.8c1.8,0.1,2,0.9,0.7,2.6c-1.4,1.8-2.4,2.4-2.9,1.8c-0.5-0.5-0.4-1.4,0.1-2.6
			C142.9,107.4,143.6,106.8,144.4,106.8L144.4,106.8z"/>
		<path class="st8" d="M141.5,112.6c0.5,0.1,0.6,0.5,0.4,1.1c-0.2,0.6-0.4,0.8-0.8,0.6c-0.3-0.2-0.4-0.5-0.3-1
			C141,112.7,141.2,112.5,141.5,112.6L141.5,112.6z"/>
	</g>
	<g id="Слой_4">
		
			<radialGradient id="SVGID_7_" cx="-1100" cy="1448.4948" r="1" gradientTransform="matrix(12 0 0 -11.875 13532.7461 17255.875)" gradientUnits="userSpaceOnUse">
			<stop  offset="0" style="stop-color:#808080"/>
			<stop  offset="1" style="stop-color:#808080;stop-opacity:0"/>
		</radialGradient>
		<path class="st9" d="M346.5,55.5c0,3.7-1.3,6.9-3.9,9.6c-2.6,2.6-5.8,4-9.4,4c-3.7,0-6.9-1.3-9.5-4c-2.6-2.7-3.9-5.8-3.9-9.6
			c0-3.7,1.3-6.9,3.9-9.5c2.6-2.6,5.8-4,9.5-4c3.7,0,6.8,1.3,9.4,4C345.2,48.6,346.5,51.7,346.5,55.5z"/>
		
			<radialGradient id="SVGID_8_" cx="-1125" cy="1453.3636" r="1" gradientTransform="matrix(16 0 0 -12.375 18326.2461 18042.375)" gradientUnits="userSpaceOnUse">
			<stop  offset="0" style="stop-color:#808080"/>
			<stop  offset="1" style="stop-color:#808080;stop-opacity:0"/>
		</radialGradient>
		<path class="st10" d="M343.5,57.5c0,3.7-1.3,6.9-3.9,9.6c-2.6,2.6-5.8,4-9.4,4c-3.7,0-6.9-1.3-9.5-4c-2.6-2.7-3.9-5.8-3.9-9.6
			c0-3.7,1.3-6.9,3.9-9.5c2.6-2.6,5.8-4,9.5-4c3.7,0,6.8,1.3,9.4,4C342.2,50.6,343.5,53.7,343.5,57.5z"/>
		
			<radialGradient id="SVGID_9_" cx="-1117.2155" cy="1564.0294" r="1" gradientTransform="matrix(15.4771 16.357 16.3492 -15.4697 -7959.9478 42520.2695)" gradientUnits="userSpaceOnUse">
			<stop  offset="0" style="stop-color:#964E4E"/>
			<stop  offset="6.666670e-02" style="stop-color:#954D4D"/>
			<stop  offset="0.1333" style="stop-color:#944B4B"/>
			<stop  offset="0.2" style="stop-color:#914848"/>
			<stop  offset="0.2667" style="stop-color:#8D4444"/>
			<stop  offset="0.3333" style="stop-color:#883E3E"/>
			<stop  offset="0.4" style="stop-color:#823636"/>
			<stop  offset="0.4667" style="stop-color:#7B2F2F"/>
			<stop  offset="0.5333" style="stop-color:#752626"/>
			<stop  offset="0.6" style="stop-color:#6E1F1F"/>
			<stop  offset="0.6667" style="stop-color:#681717"/>
			<stop  offset="0.7333" style="stop-color:#631111"/>
			<stop  offset="0.8" style="stop-color:#5F0D0D"/>
			<stop  offset="0.8667" style="stop-color:#5C0A0A"/>
			<stop  offset="0.9333" style="stop-color:#5B0808"/>
			<stop  offset="1" style="stop-color:#5A0707"/>
		</radialGradient>
		<path class="st11" d="M339.7,57.5c0,3.7-1.3,6.9-3.9,9.6c-2.6,2.6-5.8,4-9.4,4c-3.7,0-6.9-1.3-9.5-4c-2.6-2.7-3.9-5.8-3.9-9.6
			c0-3.7,1.3-6.9,3.9-9.5c2.6-2.6,5.8-4,9.5-4c3.7,0,6.8,1.3,9.4,4C338.4,50.6,339.7,53.7,339.7,57.5z"/>
		<path class="st12" d="M319.4,48.8c1.8,0.1,2,0.9,0.7,2.6c-1.4,1.8-2.4,2.4-2.9,1.8c-0.5-0.5-0.4-1.4,0.1-2.6
			C317.9,49.4,318.6,48.8,319.4,48.8L319.4,48.8z"/>
		<path class="st12" d="M316.5,54.6c0.5,0.1,0.6,0.5,0.4,1.1c-0.2,0.6-0.4,0.8-0.8,0.5c-0.3-0.2-0.4-0.5-0.3-1
			C316,54.7,316.2,54.5,316.5,54.6L316.5,54.6z"/>
	</g>
	<g id="Слой_3">
		
			<radialGradient id="SVGID_10_" cx="-1100" cy="1448.4948" r="1" gradientTransform="matrix(12 0 0 -11.875 13504.7461 17313.875)" gradientUnits="userSpaceOnUse">
			<stop  offset="0" style="stop-color:#808080"/>
			<stop  offset="1" style="stop-color:#808080;stop-opacity:0"/>
		</radialGradient>
		<path class="st13" d="M318.5,113.5c0,3.7-1.3,6.9-3.9,9.6c-2.6,2.6-5.8,4-9.4,4c-3.7,0-6.9-1.3-9.5-4c-2.6-2.7-3.9-5.8-3.9-9.6
			c0-3.7,1.3-6.9,3.9-9.5c2.6-2.6,5.8-4,9.5-4c3.7,0,6.8,1.3,9.4,4C317.2,106.6,318.5,109.7,318.5,113.5z"/>
		
			<radialGradient id="SVGID_11_" cx="-1125" cy="1453.3636" r="1" gradientTransform="matrix(16 0 0 -12.375 18298.2461 18100.375)" gradientUnits="userSpaceOnUse">
			<stop  offset="0" style="stop-color:#808080"/>
			<stop  offset="1" style="stop-color:#808080;stop-opacity:0"/>
		</radialGradient>
		<path class="st14" d="M315.5,115.5c0,3.7-1.3,6.9-3.9,9.6c-2.6,2.6-5.8,4-9.4,4c-3.7,0-6.9-1.3-9.5-4c-2.6-2.7-3.9-5.8-3.9-9.6
			c0-3.7,1.3-6.9,3.9-9.5c2.6-2.6,5.8-4,9.5-4c3.7,0,6.8,1.3,9.4,4C314.2,108.6,315.5,111.7,315.5,115.5z"/>
		
			<radialGradient id="SVGID_12_" cx="-1117.2155" cy="1564.0294" r="1" gradientTransform="matrix(15.4771 16.357 16.3492 -15.4697 -7987.9478 42578.2695)" gradientUnits="userSpaceOnUse">
			<stop  offset="0" style="stop-color:#FFEC6F"/>
			<stop  offset="6.666670e-02" style="stop-color:#FFEC6E"/>
			<stop  offset="0.1333" style="stop-color:#FEEB6B"/>
			<stop  offset="0.2" style="stop-color:#FCE966"/>
			<stop  offset="0.2667" style="stop-color:#FAE65F"/>
			<stop  offset="0.3333" style="stop-color:#F8E357"/>
			<stop  offset="0.4" style="stop-color:#F4DE4C"/>
			<stop  offset="0.4667" style="stop-color:#F1DA40"/>
			<stop  offset="0.5333" style="stop-color:#EDD534"/>
			<stop  offset="0.6" style="stop-color:#EAD029"/>
			<stop  offset="0.6667" style="stop-color:#E7CC1E"/>
			<stop  offset="0.7333" style="stop-color:#E4C915"/>
			<stop  offset="0.8" style="stop-color:#E2C60E"/>
			<stop  offset="0.8667" style="stop-color:#E0C40A"/>
			<stop  offset="0.9333" style="stop-color:#DFC307"/>
			<stop  offset="1" style="stop-color:#DFC206"/>
		</radialGradient>
		<path class="st15" d="M311.7,115.5c0,3.7-1.3,6.9-3.9,9.6c-2.6,2.6-5.8,4-9.4,4c-3.7,0-6.9-1.3-9.5-4c-2.6-2.7-3.9-5.8-3.9-9.6
			c0-3.7,1.3-6.9,3.9-9.5c2.6-2.6,5.8-4,9.5-4c3.7,0,6.8,1.3,9.4,4C310.4,108.6,311.7,111.7,311.7,115.5z"/>
		<path class="st4" d="M291.4,106.8c1.8,0.1,2,0.9,0.7,2.6c-1.4,1.8-2.4,2.4-2.9,1.8c-0.5-0.5-0.4-1.4,0.1-2.6
			C289.9,107.4,290.6,106.8,291.4,106.8L291.4,106.8z"/>
		<path class="st4" d="M288.5,112.6c0.5,0.1,0.6,0.5,0.4,1.1c-0.2,0.6-0.4,0.8-0.8,0.6c-0.3-0.2-0.4-0.5-0.3-1
			C288,112.7,288.2,112.5,288.5,112.6L288.5,112.6z"/>
	</g>
</g>
<g id="Слой_2">
	<circle class="st16" cx="544" cy="112" r="10"/>
	
		<radialGradient id="SVGID_13_" cx="-1285.7142" cy="1634.0454" r="1" gradientTransform="matrix(-14 0 0 22 -17448.5 -35837)" gradientUnits="userSpaceOnUse">
		<stop  offset="0" style="stop-color:#FFF9CB"/>
		<stop  offset="6.666670e-02" style="stop-color:#FEF8CB"/>
		<stop  offset="0.1333" style="stop-color:#FDF7C9"/>
		<stop  offset="0.2" style="stop-color:#FAF4C7"/>
		<stop  offset="0.2667" style="stop-color:#F6F0C3"/>
		<stop  offset="0.3333" style="stop-color:#F0EBBF"/>
		<stop  offset="0.4" style="stop-color:#EAE4BA"/>
		<stop  offset="0.4667" style="stop-color:#E3DEB4"/>
		<stop  offset="0.5333" style="stop-color:#DBD6AF"/>
		<stop  offset="0.6" style="stop-color:#D4D0A9"/>
		<stop  offset="0.6667" style="stop-color:#CEC9A4"/>
		<stop  offset="0.7333" style="stop-color:#C8C4A0"/>
		<stop  offset="0.8" style="stop-color:#C4C09C"/>
		<stop  offset="0.8667" style="stop-color:#C1BD9A"/>
		<stop  offset="0.9333" style="stop-color:#C0BC98"/>
		<stop  offset="1" style="stop-color:#BFBB98"/>
	</radialGradient>
	<circle class="st17" cx="544" cy="112" r="10"/>
	<circle class="st16" cx="514" cy="112" r="10"/>
	
		<radialGradient id="SVGID_14_" cx="-1285.7142" cy="1634.0454" r="1" gradientTransform="matrix(-14 0 0 22 -17478.5 -35837)" gradientUnits="userSpaceOnUse">
		<stop  offset="0" style="stop-color:#FFF9CB"/>
		<stop  offset="6.666670e-02" style="stop-color:#FEF8CB"/>
		<stop  offset="0.1333" style="stop-color:#FDF7C9"/>
		<stop  offset="0.2" style="stop-color:#FAF4C7"/>
		<stop  offset="0.2667" style="stop-color:#F6F0C3"/>
		<stop  offset="0.3333" style="stop-color:#F0EBBF"/>
		<stop  offset="0.4" style="stop-color:#EAE4BA"/>
		<stop  offset="0.4667" style="stop-color:#E3DEB4"/>
		<stop  offset="0.5333" style="stop-color:#DBD6AF"/>
		<stop  offset="0.6" style="stop-color:#D4D0A9"/>
		<stop  offset="0.6667" style="stop-color:#CEC9A4"/>
		<stop  offset="0.7333" style="stop-color:#C8C4A0"/>
		<stop  offset="0.8" style="stop-color:#C4C09C"/>
		<stop  offset="0.8667" style="stop-color:#C1BD9A"/>
		<stop  offset="0.9333" style="stop-color:#C0BC98"/>
		<stop  offset="1" style="stop-color:#BFBB98"/>
	</radialGradient>
	<circle class="st18" cx="514" cy="112" r="10"/>
	<circle class="st16" cx="484" cy="113" r="10"/>
	
		<radialGradient id="SVGID_15_" cx="-1285.7142" cy="1634.0454" r="1" gradientTransform="matrix(-14 0 0 22 -17508.5 -35836)" gradientUnits="userSpaceOnUse">
		<stop  offset="0" style="stop-color:#FFF9CB"/>
		<stop  offset="6.666670e-02" style="stop-color:#FEF8CB"/>
		<stop  offset="0.1333" style="stop-color:#FDF7C9"/>
		<stop  offset="0.2" style="stop-color:#FAF4C7"/>
		<stop  offset="0.2667" style="stop-color:#F6F0C3"/>
		<stop  offset="0.3333" style="stop-color:#F0EBBF"/>
		<stop  offset="0.4" style="stop-color:#EAE4BA"/>
		<stop  offset="0.4667" style="stop-color:#E3DEB4"/>
		<stop  offset="0.5333" style="stop-color:#DBD6AF"/>
		<stop  offset="0.6" style="stop-color:#D4D0A9"/>
		<stop  offset="0.6667" style="stop-color:#CEC9A4"/>
		<stop  offset="0.7333" style="stop-color:#C8C4A0"/>
		<stop  offset="0.8" style="stop-color:#C4C09C"/>
		<stop  offset="0.8667" style="stop-color:#C1BD9A"/>
		<stop  offset="0.9333" style="stop-color:#C0BC98"/>
		<stop  offset="1" style="stop-color:#BFBB98"/>
	</radialGradient>
	<circle class="st19" cx="484" cy="113" r="10"/>
	<circle class="st16" cx="454" cy="113" r="10"/>
	
		<radialGradient id="SVGID_16_" cx="-1285.7142" cy="1634.0454" r="1" gradientTransform="matrix(-14 0 0 22 -17538.5 -35836)" gradientUnits="userSpaceOnUse">
		<stop  offset="0" style="stop-color:#FFF9CB"/>
		<stop  offset="6.666670e-02" style="stop-color:#FEF8CB"/>
		<stop  offset="0.1333" style="stop-color:#FDF7C9"/>
		<stop  offset="0.2" style="stop-color:#FAF4C7"/>
		<stop  offset="0.2667" style="stop-color:#F6F0C3"/>
		<stop  offset="0.3333" style="stop-color:#F0EBBF"/>
		<stop  offset="0.4" style="stop-color:#EAE4BA"/>
		<stop  offset="0.4667" style="stop-color:#E3DEB4"/>
		<stop  offset="0.5333" style="stop-color:#DBD6AF"/>
		<stop  offset="0.6" style="stop-color:#D4D0A9"/>
		<stop  offset="0.6667" style="stop-color:#CEC9A4"/>
		<stop  offset="0.7333" style="stop-color:#C8C4A0"/>
		<stop  offset="0.8" style="stop-color:#C4C09C"/>
		<stop  offset="0.8667" style="stop-color:#C1BD9A"/>
		<stop  offset="0.9333" style="stop-color:#C0BC98"/>
		<stop  offset="1" style="stop-color:#BFBB98"/>
	</radialGradient>
	<circle class="st20" cx="454" cy="113" r="10"/>
	<circle class="st16" cx="394" cy="113" r="10"/>
	
		<radialGradient id="SVGID_17_" cx="-1285.7142" cy="1634.0454" r="1" gradientTransform="matrix(-14 0 0 22 -17598.5 -35836)" gradientUnits="userSpaceOnUse">
		<stop  offset="0" style="stop-color:#FFF9CB"/>
		<stop  offset="6.666670e-02" style="stop-color:#FEF8CB"/>
		<stop  offset="0.1333" style="stop-color:#FDF7C9"/>
		<stop  offset="0.2" style="stop-color:#FAF4C7"/>
		<stop  offset="0.2667" style="stop-color:#F6F0C3"/>
		<stop  offset="0.3333" style="stop-color:#F0EBBF"/>
		<stop  offset="0.4" style="stop-color:#EAE4BA"/>
		<stop  offset="0.4667" style="stop-color:#E3DEB4"/>
		<stop  offset="0.5333" style="stop-color:#DBD6AF"/>
		<stop  offset="0.6" style="stop-color:#D4D0A9"/>
		<stop  offset="0.6667" style="stop-color:#CEC9A4"/>
		<stop  offset="0.7333" style="stop-color:#C8C4A0"/>
		<stop  offset="0.8" style="stop-color:#C4C09C"/>
		<stop  offset="0.8667" style="stop-color:#C1BD9A"/>
		<stop  offset="0.9333" style="stop-color:#C0BC98"/>
		<stop  offset="1" style="stop-color:#BFBB98"/>
	</radialGradient>
	<circle class="st21" cx="394" cy="113" r="10"/>
	<circle class="st16" cx="363" cy="113" r="10"/>
	
		<radialGradient id="SVGID_18_" cx="-1285.7142" cy="1634.0454" r="1" gradientTransform="matrix(-14 0 0 22 -17629.5 -35836)" gradientUnits="userSpaceOnUse">
		<stop  offset="0" style="stop-color:#FFF9CB"/>
		<stop  offset="6.666670e-02" style="stop-color:#FEF8CB"/>
		<stop  offset="0.1333" style="stop-color:#FDF7C9"/>
		<stop  offset="0.2" style="stop-color:#FAF4C7"/>
		<stop  offset="0.2667" style="stop-color:#F6F0C3"/>
		<stop  offset="0.3333" style="stop-color:#F0EBBF"/>
		<stop  offset="0.4" style="stop-color:#EAE4BA"/>
		<stop  offset="0.4667" style="stop-color:#E3DEB4"/>
		<stop  offset="0.5333" style="stop-color:#DBD6AF"/>
		<stop  offset="0.6" style="stop-color:#D4D0A9"/>
		<stop  offset="0.6667" style="stop-color:#CEC9A4"/>
		<stop  offset="0.7333" style="stop-color:#C8C4A0"/>
		<stop  offset="0.8" style="stop-color:#C4C09C"/>
		<stop  offset="0.8667" style="stop-color:#C1BD9A"/>
		<stop  offset="0.9333" style="stop-color:#C0BC98"/>
		<stop  offset="1" style="stop-color:#BFBB98"/>
	</radialGradient>
	<circle class="st22" cx="363" cy="113" r="10"/>
	<circle class="st16" cx="332" cy="113" r="10"/>
	
		<radialGradient id="SVGID_19_" cx="-1285.7142" cy="1634.0454" r="1" gradientTransform="matrix(-14 0 0 22 -17660.5 -35836)" gradientUnits="userSpaceOnUse">
		<stop  offset="0" style="stop-color:#FFF9CB"/>
		<stop  offset="6.666670e-02" style="stop-color:#FEF8CB"/>
		<stop  offset="0.1333" style="stop-color:#FDF7C9"/>
		<stop  offset="0.2" style="stop-color:#FAF4C7"/>
		<stop  offset="0.2667" style="stop-color:#F6F0C3"/>
		<stop  offset="0.3333" style="stop-color:#F0EBBF"/>
		<stop  offset="0.4" style="stop-color:#EAE4BA"/>
		<stop  offset="0.4667" style="stop-color:#E3DEB4"/>
		<stop  offset="0.5333" style="stop-color:#DBD6AF"/>
		<stop  offset="0.6" style="stop-color:#D4D0A9"/>
		<stop  offset="0.6667" style="stop-color:#CEC9A4"/>
		<stop  offset="0.7333" style="stop-color:#C8C4A0"/>
		<stop  offset="0.8" style="stop-color:#C4C09C"/>
		<stop  offset="0.8667" style="stop-color:#C1BD9A"/>
		<stop  offset="0.9333" style="stop-color:#C0BC98"/>
		<stop  offset="1" style="stop-color:#BFBB98"/>
	</radialGradient>
	<circle class="st23" cx="332" cy="113" r="10"/>
	<circle class="st16" cx="331" cy="86" r="10"/>
	
		<radialGradient id="SVGID_20_" cx="-1285.7142" cy="1634.0454" r="1" gradientTransform="matrix(-14 0 0 22 -17661.5 -35863)" gradientUnits="userSpaceOnUse">
		<stop  offset="0" style="stop-color:#FFF9CB"/>
		<stop  offset="6.666670e-02" style="stop-color:#FEF8CB"/>
		<stop  offset="0.1333" style="stop-color:#FDF7C9"/>
		<stop  offset="0.2" style="stop-color:#FAF4C7"/>
		<stop  offset="0.2667" style="stop-color:#F6F0C3"/>
		<stop  offset="0.3333" style="stop-color:#F0EBBF"/>
		<stop  offset="0.4" style="stop-color:#EAE4BA"/>
		<stop  offset="0.4667" style="stop-color:#E3DEB4"/>
		<stop  offset="0.5333" style="stop-color:#DBD6AF"/>
		<stop  offset="0.6" style="stop-color:#D4D0A9"/>
		<stop  offset="0.6667" style="stop-color:#CEC9A4"/>
		<stop  offset="0.7333" style="stop-color:#C8C4A0"/>
		<stop  offset="0.8" style="stop-color:#C4C09C"/>
		<stop  offset="0.8667" style="stop-color:#C1BD9A"/>
		<stop  offset="0.9333" style="stop-color:#C0BC98"/>
		<stop  offset="1" style="stop-color:#BFBB98"/>
	</radialGradient>
	<circle class="st24" cx="331" cy="86" r="10"/>
	<circle class="st16" cx="299" cy="56" r="10"/>
	
		<radialGradient id="SVGID_21_" cx="-1285.7142" cy="1634.0454" r="1" gradientTransform="matrix(-14 0 0 22 -17693.5 -35893)" gradientUnits="userSpaceOnUse">
		<stop  offset="0" style="stop-color:#FFF9CB"/>
		<stop  offset="6.666670e-02" style="stop-color:#FEF8CB"/>
		<stop  offset="0.1333" style="stop-color:#FDF7C9"/>
		<stop  offset="0.2" style="stop-color:#FAF4C7"/>
		<stop  offset="0.2667" style="stop-color:#F6F0C3"/>
		<stop  offset="0.3333" style="stop-color:#F0EBBF"/>
		<stop  offset="0.4" style="stop-color:#EAE4BA"/>
		<stop  offset="0.4667" style="stop-color:#E3DEB4"/>
		<stop  offset="0.5333" style="stop-color:#DBD6AF"/>
		<stop  offset="0.6" style="stop-color:#D4D0A9"/>
		<stop  offset="0.6667" style="stop-color:#CEC9A4"/>
		<stop  offset="0.7333" style="stop-color:#C8C4A0"/>
		<stop  offset="0.8" style="stop-color:#C4C09C"/>
		<stop  offset="0.8667" style="stop-color:#C1BD9A"/>
		<stop  offset="0.9333" style="stop-color:#C0BC98"/>
		<stop  offset="1" style="stop-color:#BFBB98"/>
	</radialGradient>
	<circle class="st25" cx="299" cy="56" r="10"/>
	<circle class="st16" cx="359" cy="56" r="10"/>
	
		<radialGradient id="SVGID_22_" cx="-1285.7142" cy="1634.0454" r="1" gradientTransform="matrix(-14 0 0 22 -17633.5 -35893)" gradientUnits="userSpaceOnUse">
		<stop  offset="0" style="stop-color:#FFF9CB"/>
		<stop  offset="6.666670e-02" style="stop-color:#FEF8CB"/>
		<stop  offset="0.1333" style="stop-color:#FDF7C9"/>
		<stop  offset="0.2" style="stop-color:#FAF4C7"/>
		<stop  offset="0.2667" style="stop-color:#F6F0C3"/>
		<stop  offset="0.3333" style="stop-color:#F0EBBF"/>
		<stop  offset="0.4" style="stop-color:#EAE4BA"/>
		<stop  offset="0.4667" style="stop-color:#E3DEB4"/>
		<stop  offset="0.5333" style="stop-color:#DBD6AF"/>
		<stop  offset="0.6" style="stop-color:#D4D0A9"/>
		<stop  offset="0.6667" style="stop-color:#CEC9A4"/>
		<stop  offset="0.7333" style="stop-color:#C8C4A0"/>
		<stop  offset="0.8" style="stop-color:#C4C09C"/>
		<stop  offset="0.8667" style="stop-color:#C1BD9A"/>
		<stop  offset="0.9333" style="stop-color:#C0BC98"/>
		<stop  offset="1" style="stop-color:#BFBB98"/>
	</radialGradient>
	<circle class="st26" cx="359" cy="56" r="10"/>
	<circle class="st16" cx="418" cy="25" r="10"/>
	
		<radialGradient id="SVGID_23_" cx="-1285.7142" cy="1634.0454" r="1" gradientTransform="matrix(-14 0 0 22 -17574.5 -35924)" gradientUnits="userSpaceOnUse">
		<stop  offset="0" style="stop-color:#FFF9CB"/>
		<stop  offset="6.666670e-02" style="stop-color:#FEF8CB"/>
		<stop  offset="0.1333" style="stop-color:#FDF7C9"/>
		<stop  offset="0.2" style="stop-color:#FAF4C7"/>
		<stop  offset="0.2667" style="stop-color:#F6F0C3"/>
		<stop  offset="0.3333" style="stop-color:#F0EBBF"/>
		<stop  offset="0.4" style="stop-color:#EAE4BA"/>
		<stop  offset="0.4667" style="stop-color:#E3DEB4"/>
		<stop  offset="0.5333" style="stop-color:#DBD6AF"/>
		<stop  offset="0.6" style="stop-color:#D4D0A9"/>
		<stop  offset="0.6667" style="stop-color:#CEC9A4"/>
		<stop  offset="0.7333" style="stop-color:#C8C4A0"/>
		<stop  offset="0.8" style="stop-color:#C4C09C"/>
		<stop  offset="0.8667" style="stop-color:#C1BD9A"/>
		<stop  offset="0.9333" style="stop-color:#C0BC98"/>
		<stop  offset="1" style="stop-color:#BFBB98"/>
	</radialGradient>
	<circle class="st27" cx="418" cy="25" r="10"/>
	<circle class="st16" cx="448" cy="25" r="10"/>
	
		<radialGradient id="SVGID_24_" cx="-1285.7142" cy="1634.0454" r="1" gradientTransform="matrix(-14 0 0 22 -17544.5 -35924)" gradientUnits="userSpaceOnUse">
		<stop  offset="0" style="stop-color:#FFF9CB"/>
		<stop  offset="6.666670e-02" style="stop-color:#FEF8CB"/>
		<stop  offset="0.1333" style="stop-color:#FDF7C9"/>
		<stop  offset="0.2" style="stop-color:#FAF4C7"/>
		<stop  offset="0.2667" style="stop-color:#F6F0C3"/>
		<stop  offset="0.3333" style="stop-color:#F0EBBF"/>
		<stop  offset="0.4" style="stop-color:#EAE4BA"/>
		<stop  offset="0.4667" style="stop-color:#E3DEB4"/>
		<stop  offset="0.5333" style="stop-color:#DBD6AF"/>
		<stop  offset="0.6" style="stop-color:#D4D0A9"/>
		<stop  offset="0.6667" style="stop-color:#CEC9A4"/>
		<stop  offset="0.7333" style="stop-color:#C8C4A0"/>
		<stop  offset="0.8" style="stop-color:#C4C09C"/>
		<stop  offset="0.8667" style="stop-color:#C1BD9A"/>
		<stop  offset="0.9333" style="stop-color:#C0BC98"/>
		<stop  offset="1" style="stop-color:#BFBB98"/>
	</radialGradient>
	<circle class="st28" cx="448" cy="25" r="10"/>
	<circle class="st16" cx="479" cy="25" r="10"/>
	
		<radialGradient id="SVGID_25_" cx="-1285.7142" cy="1634.0454" r="1" gradientTransform="matrix(-14 0 0 22 -17513.5 -35924)" gradientUnits="userSpaceOnUse">
		<stop  offset="0" style="stop-color:#FFF9CB"/>
		<stop  offset="6.666670e-02" style="stop-color:#FEF8CB"/>
		<stop  offset="0.1333" style="stop-color:#FDF7C9"/>
		<stop  offset="0.2" style="stop-color:#FAF4C7"/>
		<stop  offset="0.2667" style="stop-color:#F6F0C3"/>
		<stop  offset="0.3333" style="stop-color:#F0EBBF"/>
		<stop  offset="0.4" style="stop-color:#EAE4BA"/>
		<stop  offset="0.4667" style="stop-color:#E3DEB4"/>
		<stop  offset="0.5333" style="stop-color:#DBD6AF"/>
		<stop  offset="0.6" style="stop-color:#D4D0A9"/>
		<stop  offset="0.6667" style="stop-color:#CEC9A4"/>
		<stop  offset="0.7333" style="stop-color:#C8C4A0"/>
		<stop  offset="0.8" style="stop-color:#C4C09C"/>
		<stop  offset="0.8667" style="stop-color:#C1BD9A"/>
		<stop  offset="0.9333" style="stop-color:#C0BC98"/>
		<stop  offset="1" style="stop-color:#BFBB98"/>
	</radialGradient>
	<circle class="st29" cx="479" cy="25" r="10"/>
	<circle class="st16" cx="481" cy="55" r="10"/>
	
		<radialGradient id="SVGID_26_" cx="-1285.7142" cy="1634.0454" r="1" gradientTransform="matrix(-14 0 0 22 -17511.5 -35894)" gradientUnits="userSpaceOnUse">
		<stop  offset="0" style="stop-color:#FFF9CB"/>
		<stop  offset="6.666670e-02" style="stop-color:#FEF8CB"/>
		<stop  offset="0.1333" style="stop-color:#FDF7C9"/>
		<stop  offset="0.2" style="stop-color:#FAF4C7"/>
		<stop  offset="0.2667" style="stop-color:#F6F0C3"/>
		<stop  offset="0.3333" style="stop-color:#F0EBBF"/>
		<stop  offset="0.4" style="stop-color:#EAE4BA"/>
		<stop  offset="0.4667" style="stop-color:#E3DEB4"/>
		<stop  offset="0.5333" style="stop-color:#DBD6AF"/>
		<stop  offset="0.6" style="stop-color:#D4D0A9"/>
		<stop  offset="0.6667" style="stop-color:#CEC9A4"/>
		<stop  offset="0.7333" style="stop-color:#C8C4A0"/>
		<stop  offset="0.8" style="stop-color:#C4C09C"/>
		<stop  offset="0.8667" style="stop-color:#C1BD9A"/>
		<stop  offset="0.9333" style="stop-color:#C0BC98"/>
		<stop  offset="1" style="stop-color:#BFBB98"/>
	</radialGradient>
	<circle class="st30" cx="481" cy="55" r="10"/>
	<circle class="st16" cx="482" cy="83" r="10"/>
	
		<radialGradient id="SVGID_27_" cx="-1285.7142" cy="1634.0454" r="1" gradientTransform="matrix(-14 0 0 22 -17510.5 -35866)" gradientUnits="userSpaceOnUse">
		<stop  offset="0" style="stop-color:#FFF9CB"/>
		<stop  offset="6.666670e-02" style="stop-color:#FEF8CB"/>
		<stop  offset="0.1333" style="stop-color:#FDF7C9"/>
		<stop  offset="0.2" style="stop-color:#FAF4C7"/>
		<stop  offset="0.2667" style="stop-color:#F6F0C3"/>
		<stop  offset="0.3333" style="stop-color:#F0EBBF"/>
		<stop  offset="0.4" style="stop-color:#EAE4BA"/>
		<stop  offset="0.4667" style="stop-color:#E3DEB4"/>
		<stop  offset="0.5333" style="stop-color:#DBD6AF"/>
		<stop  offset="0.6" style="stop-color:#D4D0A9"/>
		<stop  offset="0.6667" style="stop-color:#CEC9A4"/>
		<stop  offset="0.7333" style="stop-color:#C8C4A0"/>
		<stop  offset="0.8" style="stop-color:#C4C09C"/>
		<stop  offset="0.8667" style="stop-color:#C1BD9A"/>
		<stop  offset="0.9333" style="stop-color:#C0BC98"/>
		<stop  offset="1" style="stop-color:#BFBB98"/>
	</radialGradient>
	<circle class="st31" cx="482" cy="83" r="10"/>
	<circle class="st16" cx="328" cy="28" r="10"/>
	
		<radialGradient id="SVGID_28_" cx="-1285.7142" cy="1634.0454" r="1" gradientTransform="matrix(-14 0 0 22 -17664.5 -35921)" gradientUnits="userSpaceOnUse">
		<stop  offset="0" style="stop-color:#FFF9CB"/>
		<stop  offset="6.666670e-02" style="stop-color:#FEF8CB"/>
		<stop  offset="0.1333" style="stop-color:#FDF7C9"/>
		<stop  offset="0.2" style="stop-color:#FAF4C7"/>
		<stop  offset="0.2667" style="stop-color:#F6F0C3"/>
		<stop  offset="0.3333" style="stop-color:#F0EBBF"/>
		<stop  offset="0.4" style="stop-color:#EAE4BA"/>
		<stop  offset="0.4667" style="stop-color:#E3DEB4"/>
		<stop  offset="0.5333" style="stop-color:#DBD6AF"/>
		<stop  offset="0.6" style="stop-color:#D4D0A9"/>
		<stop  offset="0.6667" style="stop-color:#CEC9A4"/>
		<stop  offset="0.7333" style="stop-color:#C8C4A0"/>
		<stop  offset="0.8" style="stop-color:#C4C09C"/>
		<stop  offset="0.8667" style="stop-color:#C1BD9A"/>
		<stop  offset="0.9333" style="stop-color:#C0BC98"/>
		<stop  offset="1" style="stop-color:#BFBB98"/>
	</radialGradient>
	<circle class="st32" cx="328" cy="28" r="10"/>
	<circle class="st16" cx="270" cy="113" r="10"/>
	
		<radialGradient id="SVGID_29_" cx="-1285.7142" cy="1634.0454" r="1" gradientTransform="matrix(-14 0 0 22 -17722.5 -35836)" gradientUnits="userSpaceOnUse">
		<stop  offset="0" style="stop-color:#FFF9CB"/>
		<stop  offset="6.666670e-02" style="stop-color:#FEF8CB"/>
		<stop  offset="0.1333" style="stop-color:#FDF7C9"/>
		<stop  offset="0.2" style="stop-color:#FAF4C7"/>
		<stop  offset="0.2667" style="stop-color:#F6F0C3"/>
		<stop  offset="0.3333" style="stop-color:#F0EBBF"/>
		<stop  offset="0.4" style="stop-color:#EAE4BA"/>
		<stop  offset="0.4667" style="stop-color:#E3DEB4"/>
		<stop  offset="0.5333" style="stop-color:#DBD6AF"/>
		<stop  offset="0.6" style="stop-color:#D4D0A9"/>
		<stop  offset="0.6667" style="stop-color:#CEC9A4"/>
		<stop  offset="0.7333" style="stop-color:#C8C4A0"/>
		<stop  offset="0.8" style="stop-color:#C4C09C"/>
		<stop  offset="0.8667" style="stop-color:#C1BD9A"/>
		<stop  offset="0.9333" style="stop-color:#C0BC98"/>
		<stop  offset="1" style="stop-color:#BFBB98"/>
	</radialGradient>
	<circle class="st33" cx="270" cy="113" r="10"/>
	<circle class="st16" cx="240" cy="113" r="10"/>
	
		<radialGradient id="SVGID_30_" cx="-1285.7142" cy="1634.0454" r="1" gradientTransform="matrix(-14 0 0 22 -17752.5 -35836)" gradientUnits="userSpaceOnUse">
		<stop  offset="0" style="stop-color:#FFF9CB"/>
		<stop  offset="6.666670e-02" style="stop-color:#FEF8CB"/>
		<stop  offset="0.1333" style="stop-color:#FDF7C9"/>
		<stop  offset="0.2" style="stop-color:#FAF4C7"/>
		<stop  offset="0.2667" style="stop-color:#F6F0C3"/>
		<stop  offset="0.3333" style="stop-color:#F0EBBF"/>
		<stop  offset="0.4" style="stop-color:#EAE4BA"/>
		<stop  offset="0.4667" style="stop-color:#E3DEB4"/>
		<stop  offset="0.5333" style="stop-color:#DBD6AF"/>
		<stop  offset="0.6" style="stop-color:#D4D0A9"/>
		<stop  offset="0.6667" style="stop-color:#CEC9A4"/>
		<stop  offset="0.7333" style="stop-color:#C8C4A0"/>
		<stop  offset="0.8" style="stop-color:#C4C09C"/>
		<stop  offset="0.8667" style="stop-color:#C1BD9A"/>
		<stop  offset="0.9333" style="stop-color:#C0BC98"/>
		<stop  offset="1" style="stop-color:#BFBB98"/>
	</radialGradient>
	<circle class="st34" cx="240" cy="113" r="10"/>
	<circle class="st16" cx="211" cy="113" r="10"/>
	
		<radialGradient id="SVGID_31_" cx="-1285.7142" cy="1634.0454" r="1" gradientTransform="matrix(-14 0 0 22 -17781.5 -35836)" gradientUnits="userSpaceOnUse">
		<stop  offset="0" style="stop-color:#FFF9CB"/>
		<stop  offset="6.666670e-02" style="stop-color:#FEF8CB"/>
		<stop  offset="0.1333" style="stop-color:#FDF7C9"/>
		<stop  offset="0.2" style="stop-color:#FAF4C7"/>
		<stop  offset="0.2667" style="stop-color:#F6F0C3"/>
		<stop  offset="0.3333" style="stop-color:#F0EBBF"/>
		<stop  offset="0.4" style="stop-color:#EAE4BA"/>
		<stop  offset="0.4667" style="stop-color:#E3DEB4"/>
		<stop  offset="0.5333" style="stop-color:#DBD6AF"/>
		<stop  offset="0.6" style="stop-color:#D4D0A9"/>
		<stop  offset="0.6667" style="stop-color:#CEC9A4"/>
		<stop  offset="0.7333" style="stop-color:#C8C4A0"/>
		<stop  offset="0.8" style="stop-color:#C4C09C"/>
		<stop  offset="0.8667" style="stop-color:#C1BD9A"/>
		<stop  offset="0.9333" style="stop-color:#C0BC98"/>
		<stop  offset="1" style="stop-color:#BFBB98"/>
	</radialGradient>
	<circle class="st35" cx="211" cy="113" r="10"/>
	<circle class="st16" cx="181" cy="113" r="10"/>
	
		<radialGradient id="SVGID_32_" cx="-1285.7142" cy="1634.0454" r="1" gradientTransform="matrix(-14 0 0 22 -17811.5 -35836)" gradientUnits="userSpaceOnUse">
		<stop  offset="0" style="stop-color:#FFF9CB"/>
		<stop  offset="6.666670e-02" style="stop-color:#FEF8CB"/>
		<stop  offset="0.1333" style="stop-color:#FDF7C9"/>
		<stop  offset="0.2" style="stop-color:#FAF4C7"/>
		<stop  offset="0.2667" style="stop-color:#F6F0C3"/>
		<stop  offset="0.3333" style="stop-color:#F0EBBF"/>
		<stop  offset="0.4" style="stop-color:#EAE4BA"/>
		<stop  offset="0.4667" style="stop-color:#E3DEB4"/>
		<stop  offset="0.5333" style="stop-color:#DBD6AF"/>
		<stop  offset="0.6" style="stop-color:#D4D0A9"/>
		<stop  offset="0.6667" style="stop-color:#CEC9A4"/>
		<stop  offset="0.7333" style="stop-color:#C8C4A0"/>
		<stop  offset="0.8" style="stop-color:#C4C09C"/>
		<stop  offset="0.8667" style="stop-color:#C1BD9A"/>
		<stop  offset="0.9333" style="stop-color:#C0BC98"/>
		<stop  offset="1" style="stop-color:#BFBB98"/>
	</radialGradient>
	<circle class="st36" cx="181" cy="113" r="10"/>
	<circle class="st16" cx="123" cy="113" r="10"/>
	
		<radialGradient id="SVGID_33_" cx="-1285.7142" cy="1634.0454" r="1" gradientTransform="matrix(-14 0 0 22 -17869.5 -35836)" gradientUnits="userSpaceOnUse">
		<stop  offset="0" style="stop-color:#FFF9CB"/>
		<stop  offset="6.666670e-02" style="stop-color:#FEF8CB"/>
		<stop  offset="0.1333" style="stop-color:#FDF7C9"/>
		<stop  offset="0.2" style="stop-color:#FAF4C7"/>
		<stop  offset="0.2667" style="stop-color:#F6F0C3"/>
		<stop  offset="0.3333" style="stop-color:#F0EBBF"/>
		<stop  offset="0.4" style="stop-color:#EAE4BA"/>
		<stop  offset="0.4667" style="stop-color:#E3DEB4"/>
		<stop  offset="0.5333" style="stop-color:#DBD6AF"/>
		<stop  offset="0.6" style="stop-color:#D4D0A9"/>
		<stop  offset="0.6667" style="stop-color:#CEC9A4"/>
		<stop  offset="0.7333" style="stop-color:#C8C4A0"/>
		<stop  offset="0.8" style="stop-color:#C4C09C"/>
		<stop  offset="0.8667" style="stop-color:#C1BD9A"/>
		<stop  offset="0.9333" style="stop-color:#C0BC98"/>
		<stop  offset="1" style="stop-color:#BFBB98"/>
	</radialGradient>
	<circle class="st37" cx="123" cy="113" r="10"/>
	<circle class="st16" cx="94" cy="113" r="10"/>
	
		<radialGradient id="SVGID_34_" cx="-1285.7142" cy="1634.0454" r="1" gradientTransform="matrix(-14 0 0 22 -17898.5 -35836)" gradientUnits="userSpaceOnUse">
		<stop  offset="0" style="stop-color:#FFF9CB"/>
		<stop  offset="6.666670e-02" style="stop-color:#FEF8CB"/>
		<stop  offset="0.1333" style="stop-color:#FDF7C9"/>
		<stop  offset="0.2" style="stop-color:#FAF4C7"/>
		<stop  offset="0.2667" style="stop-color:#F6F0C3"/>
		<stop  offset="0.3333" style="stop-color:#F0EBBF"/>
		<stop  offset="0.4" style="stop-color:#EAE4BA"/>
		<stop  offset="0.4667" style="stop-color:#E3DEB4"/>
		<stop  offset="0.5333" style="stop-color:#DBD6AF"/>
		<stop  offset="0.6" style="stop-color:#D4D0A9"/>
		<stop  offset="0.6667" style="stop-color:#CEC9A4"/>
		<stop  offset="0.7333" style="stop-color:#C8C4A0"/>
		<stop  offset="0.8" style="stop-color:#C4C09C"/>
		<stop  offset="0.8667" style="stop-color:#C1BD9A"/>
		<stop  offset="0.9333" style="stop-color:#C0BC98"/>
		<stop  offset="1" style="stop-color:#BFBB98"/>
	</radialGradient>
	<circle class="st38" cx="94" cy="113" r="10"/>
	<circle class="st16" cx="65" cy="113" r="10"/>
	
		<radialGradient id="SVGID_35_" cx="-1285.7142" cy="1634.0454" r="1" gradientTransform="matrix(-14 0 0 22 -17927.5 -35836)" gradientUnits="userSpaceOnUse">
		<stop  offset="0" style="stop-color:#FFF9CB"/>
		<stop  offset="6.666670e-02" style="stop-color:#FEF8CB"/>
		<stop  offset="0.1333" style="stop-color:#FDF7C9"/>
		<stop  offset="0.2" style="stop-color:#FAF4C7"/>
		<stop  offset="0.2667" style="stop-color:#F6F0C3"/>
		<stop  offset="0.3333" style="stop-color:#F0EBBF"/>
		<stop  offset="0.4" style="stop-color:#EAE4BA"/>
		<stop  offset="0.4667" style="stop-color:#E3DEB4"/>
		<stop  offset="0.5333" style="stop-color:#DBD6AF"/>
		<stop  offset="0.6" style="stop-color:#D4D0A9"/>
		<stop  offset="0.6667" style="stop-color:#CEC9A4"/>
		<stop  offset="0.7333" style="stop-color:#C8C4A0"/>
		<stop  offset="0.8" style="stop-color:#C4C09C"/>
		<stop  offset="0.8667" style="stop-color:#C1BD9A"/>
		<stop  offset="0.9333" style="stop-color:#C0BC98"/>
		<stop  offset="1" style="stop-color:#BFBB98"/>
	</radialGradient>
	<circle class="st39" cx="65" cy="113" r="10"/>
	<circle class="st16" cx="35" cy="99" r="10"/>
	
		<radialGradient id="SVGID_36_" cx="-1285.7142" cy="1634.0454" r="1" gradientTransform="matrix(-14 0 0 22 -17957.5 -35850)" gradientUnits="userSpaceOnUse">
		<stop  offset="0" style="stop-color:#FFF9CB"/>
		<stop  offset="6.666670e-02" style="stop-color:#FEF8CB"/>
		<stop  offset="0.1333" style="stop-color:#FDF7C9"/>
		<stop  offset="0.2" style="stop-color:#FAF4C7"/>
		<stop  offset="0.2667" style="stop-color:#F6F0C3"/>
		<stop  offset="0.3333" style="stop-color:#F0EBBF"/>
		<stop  offset="0.4" style="stop-color:#EAE4BA"/>
		<stop  offset="0.4667" style="stop-color:#E3DEB4"/>
		<stop  offset="0.5333" style="stop-color:#DBD6AF"/>
		<stop  offset="0.6" style="stop-color:#D4D0A9"/>
		<stop  offset="0.6667" style="stop-color:#CEC9A4"/>
		<stop  offset="0.7333" style="stop-color:#C8C4A0"/>
		<stop  offset="0.8" style="stop-color:#C4C09C"/>
		<stop  offset="0.8667" style="stop-color:#C1BD9A"/>
		<stop  offset="0.9333" style="stop-color:#C0BC98"/>
		<stop  offset="1" style="stop-color:#BFBB98"/>
	</radialGradient>
	<circle class="st40" cx="35" cy="99" r="10"/>
</g>
</svg>
