<svg width="2133" height="1445" viewBox="0 0 2133 1445" fill="none" xmlns="http://www.w3.org/2000/svg">
<g clip-path="url(#clip0)">
<rect width="2133" height="1445" fill="#252525"/>
<circle cx="120" cy="273" r="117.5" fill="#3A3A3A" stroke="#3A3A3A"/>
<circle cx="356" cy="273" r="117.5" fill="#3A3A3A" stroke="#3A3A3A"/>
<circle cx="592" cy="273" r="117.5" fill="#3A3A3A" stroke="#3A3A3A"/>
<circle cx="828" cy="273" r="117.5" fill="#3A3A3A" stroke="#3A3A3A"/>
<circle cx="1064" cy="273" r="117.5" fill="#3A3A3A" stroke="#3A3A3A"/>
<circle cx="1300" cy="273" r="117.5" fill="#3A3A3A" stroke="#3A3A3A"/>
<circle cx="1536" cy="273" r="117.5" fill="#3A3A3A" stroke="#3A3A3A"/>
<circle cx="1772" cy="273" r="117.5" fill="#3A3A3A" stroke="#3A3A3A"/>
<circle cx="2008" cy="273" r="117.5" fill="#3A3A3A" stroke="#3A3A3A"/>
<circle cx="120" cy="745" r="117.5" fill="#3A3A3A" stroke="#3A3A3A"/>
<circle cx="356" cy="745" r="117.5" fill="#3A3A3A" stroke="#3A3A3A"/>
<circle cx="592" cy="745" r="117.5" fill="#3A3A3A" stroke="#3A3A3A"/>
<circle cx="828" cy="745" r="117.5" fill="#3A3A3A" stroke="#3A3A3A"/>
<circle cx="1064" cy="745" r="117.5" fill="#3A3A3A" stroke="#3A3A3A"/>
<circle cx="1300" cy="745" r="117.5" fill="#3A3A3A" stroke="#3A3A3A"/>
<circle cx="1536" cy="745" r="117.5" fill="#3A3A3A" stroke="#3A3A3A"/>
<circle cx="1772" cy="745" r="117.5" fill="#3A3A3A" stroke="#3A3A3A"/>
<circle cx="2008" cy="745" r="117.5" fill="#3A3A3A" stroke="#3A3A3A"/>
<circle cx="120" cy="981" r="117.5" fill="#3A3A3A" stroke="#3A3A3A"/>
<circle cx="356" cy="981" r="117.5" fill="#3A3A3A" stroke="#3A3A3A"/>
<circle cx="592" cy="981" r="117.5" fill="#3A3A3A" stroke="#3A3A3A"/>
<circle cx="828" cy="981" r="117.5" fill="#3A3A3A" stroke="#3A3A3A"/>
<circle cx="1064" cy="981" r="117.5" fill="#3A3A3A" stroke="#3A3A3A"/>
<circle cx="1300" cy="981" r="117.5" fill="#3A3A3A" stroke="#3A3A3A"/>
<circle cx="1536" cy="981" r="117.5" fill="#3A3A3A" stroke="#3A3A3A"/>
<circle cx="1772" cy="981" r="117.5" fill="#3A3A3A" stroke="#3A3A3A"/>
<circle cx="2008" cy="981" r="117.5" fill="#3A3A3A" stroke="#3A3A3A"/>
<circle cx="120" cy="1217" r="117.5" fill="#3A3A3A" stroke="#3A3A3A"/>
<circle cx="356" cy="1217" r="117.5" fill="#3A3A3A" stroke="#3A3A3A"/>
<circle cx="592" cy="1217" r="117.5" fill="#3A3A3A" stroke="#3A3A3A"/>
<circle cx="828" cy="1217" r="117.5" fill="#3A3A3A" stroke="#3A3A3A"/>
<circle cx="1064" cy="1217" r="117.5" fill="#3A3A3A" stroke="#3A3A3A"/>
<circle cx="1300" cy="1217" r="117.5" fill="#3A3A3A" stroke="#3A3A3A"/>
<circle cx="1536" cy="1217" r="117.5" fill="#3A3A3A" stroke="#3A3A3A"/>
<circle cx="1772" cy="1217" r="117.5" fill="#3A3A3A" stroke="#3A3A3A"/>
<circle cx="2008" cy="1217" r="117.5" fill="#3A3A3A" stroke="#3A3A3A"/>
<circle cx="120" cy="1453" r="117.5" fill="#3A3A3A" stroke="#3A3A3A"/>
<circle cx="356" cy="1453" r="117.5" fill="#3A3A3A" stroke="#3A3A3A"/>
<circle cx="592" cy="1453" r="117.5" fill="#3A3A3A" stroke="#3A3A3A"/>
<circle cx="828" cy="1453" r="117.5" fill="#3A3A3A" stroke="#3A3A3A"/>
<circle cx="1064" cy="1453" r="117.5" fill="#3A3A3A" stroke="#3A3A3A"/>
<circle cx="1300" cy="1453" r="117.5" fill="#3A3A3A" stroke="#3A3A3A"/>
<circle cx="1536" cy="1453" r="117.5" fill="#3A3A3A" stroke="#3A3A3A"/>
<circle cx="1772" cy="1453" r="117.5" fill="#3A3A3A" stroke="#3A3A3A"/>
<circle cx="2008" cy="1453" r="117.5" fill="#3A3A3A" stroke="#3A3A3A"/>
<circle cx="120" cy="37" r="117.5" fill="#3A3A3A" stroke="#3A3A3A"/>
<circle cx="356" cy="37" r="117.5" fill="#3A3A3A" stroke="#3A3A3A"/>
<circle cx="592" cy="37" r="117.5" fill="#3A3A3A" stroke="#3A3A3A"/>
<circle cx="828" cy="37" r="117.5" fill="#3A3A3A" stroke="#3A3A3A"/>
<circle cx="1064" cy="37" r="117.5" fill="#3A3A3A" stroke="#3A3A3A"/>
<circle cx="1300" cy="37" r="117.5" fill="#3A3A3A" stroke="#3A3A3A"/>
<circle cx="1536" cy="37" r="117.5" fill="#3A3A3A" stroke="#3A3A3A"/>
<circle cx="1772" cy="37" r="117.5" fill="#3A3A3A" stroke="#3A3A3A"/>
<circle cx="2008" cy="37" r="117.5" fill="#3A3A3A" stroke="#3A3A3A"/>
<circle cx="120" cy="509" r="117.5" fill="#3A3A3A" stroke="#3A3A3A"/>
<circle cx="356" cy="509" r="117.5" fill="#3A3A3A" stroke="#3A3A3A"/>
<circle cx="592" cy="509" r="117.5" fill="#3A3A3A" stroke="#3A3A3A"/>
<circle cx="828" cy="509" r="117.5" fill="#3A3A3A" stroke="#3A3A3A"/>
<circle cx="1064" cy="509" r="117.5" fill="#3A3A3A" stroke="#3A3A3A"/>
<circle cx="1300" cy="509" r="117.5" fill="#3A3A3A" stroke="#3A3A3A"/>
<circle cx="1536" cy="509" r="117.5" fill="#3A3A3A" stroke="#3A3A3A"/>
<circle cx="1772" cy="509" r="117.5" fill="#3A3A3A" stroke="#3A3A3A"/>
<circle cx="2008" cy="509" r="117.5" fill="#3A3A3A" stroke="#3A3A3A"/>
</g>
<defs>
<clipPath id="clip0">
<rect width="2133" height="1445" fill="white"/>
</clipPath>
</defs>
</svg>
